<?xml version="1.0" encoding="utf-8"?>
<!-- Generator: Adobe Illustrator 27.5.0, SVG Export Plug-In . SVG Version: 6.00 Build 0)  -->
<svg version="1.1" xmlns="http://www.w3.org/2000/svg" xmlns:xlink="http://www.w3.org/1999/xlink" x="0px" y="0px"
	 viewBox="0 0 500 500" style="enable-background:new 0 0 500 500;" xml:space="preserve">
<g id="BACKGROUND">
	<rect style="fill:#FFFFFF;" width="500" height="500"/>
</g>
<g id="OBJECTS">
	<path style="fill:#C9E8F4;" d="M177.558,439.315c64.834-2.04,129.729,0.93,194.594,1.395c21.54,0.154,53.212-3.339,68.964-18.033
		c16.893-15.759,17.724-41.251,13.721-64.004c-8.081-45.929-34.935-60.016-18.924-88.911
		c17.012-30.701,43.677-102.026-23.293-130.062c-16.903-7.076-31.371-12.343-34.689-43.409
		c-3.527-33.021-70.072-62.667-107.085-19.882c-13.342,15.422-18.022,29.519-26.809,47.921
		c-7.52,15.748-26.617,41.376-58.872,39.078c-28.068-2-97.598-20.794-128.375,62.328c-7.988,21.574-7.015,60.743,21.915,102.834
		c13.376,19.462-3.352,58.413-6.669,72.601C63.503,437.673,132.724,440.725,177.558,439.315z"/>
	<ellipse style="fill:#B3D9E5;" cx="287.165" cy="409.59" rx="47.688" ry="8.419"/>
	<ellipse style="fill:#B3D9E5;" cx="388.099" cy="409.59" rx="47.688" ry="8.419"/>
	<g>
		<polygon style="fill:#AAD4E0;" points="272.188,234.341 90.423,234.341 84.456,229.12 90.423,94.276 266.222,89.055 
			272.188,94.276 		"/>
		<path style="fill:#6E88A0;" d="M266.222,191.576v35.593c0,1.078-0.874,1.951-1.952,1.951H86.408c-1.078,0-1.951-0.874-1.951-1.951
			V91.007c0-1.078,0.874-1.952,1.951-1.952H264.27c1.078,0,1.952,0.874,1.952,1.952V191.576"/>
		<rect x="88.983" y="92.659" style="fill:#434A4C;" width="172.088" height="131.299"/>
	</g>
	<ellipse style="fill:#B3D9E5;" cx="218.395" cy="351.982" rx="28.188" ry="4.976"/>
	<g>
		<path style="fill:#83A3BA;" d="M239.527,339.574c0-7.009,0-23.444,0-29.697c0-7.533-9.321-9.959-9.321-20.301h-11.811h0h-11.811
			c0,10.342-9.321,12.768-9.321,20.301c0,6.254,0,22.689,0,29.697v3.245v5.874c0,2.045,6.527,5.066,19.72,5.465
			c15.239,0.461,22.543-3.42,22.543-5.465V339.574L239.527,339.574z"/>
		<path style="fill:#815A96;" d="M239.527,342.309c0,0-7.967,2.764-23.101,2.909c-10.856,0.104-19.162-2.909-19.162-2.909V311.92
			c0,0,5.532,1.612,19.162,2.099c15.986,0.571,23.101-2.099,23.101-2.099V342.309z"/>
		<path style="fill:#815A96;" d="M235.441,289.9v-7.255c0-1.649-1.337-2.986-2.986-2.986h-28.119c-1.649,0-2.986,1.337-2.986,2.986
			v7.255c0,0.761,0.617,1.377,1.377,1.377c0,0,6.838,0.777,15.669,0.777c7.339,0,15.669-0.777,15.669-0.777
			C234.824,291.277,235.441,290.661,235.441,289.9z"/>
		<path style="opacity:0.29;fill:#FFFFFF;" d="M234.49,313.224c-0.317-2.656-1.488-4.799-2.971-6.985
			c-2.106-3.104-3.911-5.923-3.555-9.796c0.083-0.899,1.446-0.62,1.374,0.268c-0.403,5.024,4.046,8.349,5.819,12.611
			c1.499,3.603,1.218,7.865,1.287,11.683c0.17,9.43,0.169,19.042-0.87,28.426c-0.097,0.877-1.582,0.726-1.552-0.157
			c0.335-9.806,0.938-19.539,0.724-29.362C234.698,317.698,234.753,315.428,234.49,313.224z"/>
		<path style="opacity:0.29;fill:#FFFFFF;" d="M216.046,348.884l-9.985-1.377c-4.12-1.325-4.712-4.072-4.712-7.41v-29.167
			c0-3.338,2.706-6.043,6.043-6.043l9.177,0.774c4.531,0.647,5.519,5.092,5.519,8.43v28.75
			C222.089,346.179,219.384,348.884,216.046,348.884z"/>
		<path style="opacity:0.29;fill:#FFFFFF;" d="M210.197,293.86c-0.653,1.17-1.162,2.413-1.787,3.599
			c-0.699,1.328-1.565,2.57-2.245,3.903c-0.447,0.877,0.647,1.578,1.271,0.827c1.732-2.086,3.264-5.077,3.959-7.7
			C211.576,293.806,210.604,293.133,210.197,293.86z"/>
	</g>
	<ellipse style="fill:#B3D9E5;" cx="158.596" cy="351.982" rx="28.188" ry="4.976"/>
	<g>
		<path style="fill:#83A3BA;" d="M182.707,342.536c3.195-6.238,10.686-20.866,13.537-26.432c3.434-6.705-3.756-13.113,0.958-22.318
			l-10.512-5.384l-0.001,0l-10.512-5.384c-4.714,9.205-14.116,7.116-17.55,13.821c-2.85,5.566-10.342,20.194-13.537,26.433
			l-1.479,2.888l-2.678,5.229c-0.932,1.82,3.5,7.484,15.061,13.853c13.354,7.357,21.624,7.232,22.556,5.412L182.707,342.536
			L182.707,342.536z"/>
		<path style="fill:#FC1A3A;" d="M181.461,344.97c0,0-8.351-1.171-21.887-7.941c-9.71-4.856-15.73-11.324-15.73-11.324
			l13.852-27.048c0,0,4.189,3.957,16.099,10.603c13.969,7.795,21.518,8.662,21.518,8.662L181.461,344.97z"/>
		<path style="fill:#AA0222;" d="M201.714,296.46l3.307-6.458c0.752-1.468,0.171-3.267-1.297-4.019l-25.028-12.817
			c-1.468-0.752-3.267-0.171-4.019,1.297l-3.307,6.458c-0.347,0.677-0.079,1.507,0.598,1.854c0,0,5.732,3.809,13.592,7.834
			c6.533,3.346,14.3,6.45,14.3,6.45C200.537,297.405,201.367,297.137,201.714,296.46z"/>
		<path style="opacity:0.29;fill:#FFFFFF;" d="M190.235,316.787c0.928-2.509,0.863-4.95,0.54-7.572
			c-0.459-3.723-0.781-7.055,1.301-10.339c0.483-0.763,1.569,0.108,1.101,0.865c-2.648,4.288-0.205,9.275-0.57,13.877
			c-0.308,3.89-2.501,7.555-4.18,10.985c-4.147,8.47-8.529,17.026-13.732,24.905c-0.486,0.736-1.739-0.075-1.31-0.847
			c4.768-8.575,9.742-16.964,14.029-25.805C188.381,320.863,189.465,318.868,190.235,316.787z"/>
		<path style="opacity:0.29;fill:#FFFFFF;" d="M157.564,340.12l-8.26-5.777c-3.063-3.058-2.337-5.772-0.816-8.743l13.295-25.96
			c1.521-2.971,5.163-4.146,8.134-2.624l7.815,4.872c3.738,2.642,2.592,7.048,1.07,10.019l-13.105,25.589
			C164.176,340.466,160.535,341.641,157.564,340.12z"/>
		<path style="opacity:0.29;fill:#FFFFFF;" d="M177.44,288.479c-1.115,0.744-2.135,1.618-3.231,2.389
			c-1.228,0.864-2.565,1.574-3.778,2.451c-0.798,0.577-0.143,1.7,0.754,1.315c2.492-1.067,5.219-3.031,7.033-5.049
			C178.692,289.058,178.133,288.016,177.44,288.479z"/>
	</g>
	<ellipse style="fill:#B3D9E5;" cx="139.541" cy="409.59" rx="47.688" ry="8.419"/>
	<g>
		<path style="fill:#EDEDED;" d="M96.595,344.106c6.098,2.503,22.193,0.285,37.119-1.381l2.369-29.943l5.052,29.943h20.226
			l-25.654-60.919l-8.862,3.297L96.595,344.106z"/>
		<path style="fill:#8E550A;" d="M121.177,179.44c-3.496,3.34-4.576,8.801-3.103,13.406c0.892,2.788,2.621,5.328,2.975,8.234
			c0.874,7.19-6.833,13.398-5.807,20.567c0.399,2.785,2.098,5.247,2.556,8.023c0.487,2.953-0.47,5.925-0.926,8.883
			c-0.456,2.958-0.25,6.374,1.974,8.377c2.421,2.181,6.209,1.781,9.264,0.648c2.714-1.007,5.355-2.584,6.857-5.059
			c1.28-2.11,1.9-11.023,0.852-13.257c-1.49-3.177,0.555-11.603,1.77-13.767c2.773-4.939-0.085-14.632-1.002-20.222
			c-0.509-3.103-1.19-6.179-1.584-9.301c-0.257-2.034,0.532-6.281-0.68-7.885c-1.217-1.611-4.749-1.77-6.529-1.602
			C125.349,176.713,122.958,177.739,121.177,179.44z"/>
		<path style="fill:#BC7713;" d="M134.017,210.219c-0.552-4.042-5.72-7.544-7.584-11.174c-3.88-7.556-3.766-17.118,7.075-21.646
			c-1.565-0.957-4.237-1.056-5.716-0.917c-2.444,0.231-4.834,1.256-6.615,2.957c-3.496,3.34-4.576,8.801-3.103,13.406
			c0.892,2.788,2.621,5.327,2.975,8.234c0.874,7.19-6.833,13.398-5.807,20.567c0.399,2.785,2.098,5.247,2.556,8.023
			c0.487,2.953-0.47,5.925-0.926,8.883c-0.614,3.978-0.028,8.783,5.049,9.869c1.366,0.292,2.789,0.186,4.135-0.185
			c3.361-0.927,7.029-2.618,8.911-5.718c1.28-2.11,1.947-11.045,0.852-13.257C130.851,219.222,134.839,216.242,134.017,210.219z"/>
		<path style="fill:#818ACC;" d="M149.16,233.233c1.26-1.599,0.764-5.656,0.982-7.509c0.8-6.803,3.25-11.373,3.25-11.373
			l-14.914-1.113l0,0h-6.774l0,0l-13.983,3.921l-2.173,12.785l10.46,23.335l20.257-0.1
			C146.265,253.178,142.221,242.037,149.16,233.233z"/>
		<path style="fill:#6F7CC1;" d="M129.811,213.768l-12.09,3.39l-2.173,12.785l10.46,23.335l9.866-0.049
			C136.83,239.797,134.445,226.098,129.811,213.768z"/>
		<path style="fill:#6F7CC1;" d="M138.478,213.238h-1.363c3.943,12.763,3.941,26.587,4.832,39.962l4.318-0.021
			c0,0-4.044-11.142,2.895-19.945c1.26-1.599,0.764-5.656,0.982-7.509c0.8-6.803,3.25-11.373,3.25-11.373L138.478,213.238z"/>
		<path style="fill:#F3B18F;" d="M140.3,203.685c-0.63,2.38-1.02,4.81-1.27,7.11c-0.29,2.64-0.41,5.14-0.48,7.28
			c0.1,2.48-6.97,0.92-8.38-4.31c1.39-2.02,2.18-4.46,2.77-6.99c0.37-1.55,0.67-3.15,0.99-4.69L140.3,203.685z"/>
		<path style="fill:#D57066;" d="M140.3,203.685c-0.63,2.38-1.02,4.81-1.27,7.11c-0.464,1.715-6.165-1.74-6.09-4.02
			c0.37-1.55,0.67-3.15,0.99-4.69L140.3,203.685z"/>
		<path style="fill:#F3B18F;" d="M105.571,369.681c0.762,6.319,1.705,12.254,2.507,16.841c0.236,1.354,0.091,2.741-0.417,4.018
			c-0.661,1.663-1.448,3.259-2.021,5.057c-0.659,2.068-0.253,3.935,0.932,5.716c0.782,1.174,1.773,2.195,2.551,3.372
			c0.861,1.302,1.184,2.761,1.836,4.153c0.829,1.772,2.176,2.814,4.158,2.908c2.496,0.119,5.851-0.495,8.201-1.303
			c1.378-0.474,1.516-1.457,0.564-2.543c-0.974-1.111-2.344-1.85-3.326-3.004c-1.152-1.353-2.062-2.901-2.794-4.517
			c-0.484-1.069-0.875-2.166-1.216-3.278c-0.769-2.508-0.997-5.148-0.742-7.758c0.406-4.159,1.071-11.467,1.598-19.49
			C113.457,369.89,109.567,369.646,105.571,369.681z"/>
		<path style="fill:#F3B18F;" d="M166.914,403.198c-1.194-1.316-2.151-2.837-2.932-4.429c-0.517-1.053-0.942-2.137-1.317-3.239
			c-0.846-2.483-1.156-5.114-0.981-7.731c0.28-4.204,0.723-11.615,1.002-19.729c-3.937,0.351-7.899,0.456-11.809,0.583
			c0.95,6.221,2.063,12.05,2.996,16.564c0.278,1.346,0.175,2.737-0.293,4.029c-0.609,1.683-1.346,3.303-1.863,5.117
			c-0.595,2.087-0.131,3.941,1.108,5.684c0.817,1.15,1.84,2.14,2.654,3.292c0.901,1.275,1.269,2.723,1.963,4.094
			c0.884,1.745,2.262,2.745,4.246,2.778c2.498,0.041,5.833-0.675,8.157-1.556c1.363-0.516,1.47-1.503,0.485-2.559
			C169.323,405.017,167.932,404.32,166.914,403.198z"/>
		<path style="fill:#818ACC;" d="M157.192,281.376c-1.681-5.877-3.285-11.776-5.864-17.318l-5.063-10.88h-20.223l-4.264,5.406
			c-8.462,10.73-13.172,23.94-13.407,37.603c0,0-3.05,56.406-4.247,86.97c6.651,7.561,11.612,9.306,18.733,5.984
			c3.961-30.254,10.93-92.841,10.93-92.841l9.797,31.262c0.443,14.054,3.19,36.291,5.929,58.11
			c8.477,3.469,13.172,1.29,19.256-1.865c-1.231-24.824-2.671-56.134-2.65-61.13C166.118,322.678,165.759,311.328,157.192,281.376z"
			/>
		<path style="fill:#6F7CC1;" d="M136.446,249.842l-10.404,3.336l-4.264,5.406c-8.462,10.73-13.172,23.94-13.407,37.603
			c0,0-1.365,22.057-2.627,47.917c6.902-1.663,11.849,0.034,18.751-1.221c1.352-8.447,10.036-58.251,10.036-58.251l10.522-5.501
			C142.743,269.855,137.418,265.75,136.446,249.842z"/>
		<path style="fill:#6F7CC1;" d="M166.866,343.347c-0.464-10.617-0.757-18.313-0.747-20.669c0,0-0.36-11.35-8.927-41.302
			c-1.681-5.877-3.285-11.776-5.864-17.318l-5.063-10.88l-4.525-3.336c1.895,21.107,4.343,89.896,4.56,92.914
			C146.966,344.951,159.611,343.55,166.866,343.347z"/>
		<path style="fill:#F3B18F;" d="M148.533,193.314c0,0.43-0.007,0.861-0.042,1.27c-0.007,0.106-0.014,0.219-0.028,0.325
			c0,0.007,0,0.007,0,0.014c-0.035,0.402-0.078,0.804-0.12,1.193c0.021,0.452,0.007,0.967-0.049,1.538
			c-0.395,3.811-2.667,9.717-6.619,9.717c-2.893,0-6.09-1.629-8.018-4.136c-1.557-2.024-2.666-5.905-2.786-9.115
			c0-0.268-0.021-0.529-0.021-0.804c0-7.444,3.959-13.484,8.842-13.484c4.495,0,8.199,5.109,8.771,11.727
			c0.014,0.183,0.028,0.367,0.035,0.558C148.519,192.51,148.533,192.912,148.533,193.314z"/>
		<path style="fill:#3F2349;" d="M152.376,392.589c1.146,1.423,4.454,18.463,16.678,12.602c0.452,0.344,0.895,0.695,1.277,1.105
			c0.985,1.056,2.721,4.692,1.552,5.563c-1.776,1.323-3.861,1.891-8.656,0.522c-3.795-1.083-4.901-3.003-5.784-4.748
			c-0.695-1.372-1.062-2.819-1.963-4.094c-0.814-1.152-1.837-2.142-2.654-3.292c-1.239-1.743-1.703-3.597-1.108-5.684
			C151.912,393.881,152.138,393.229,152.376,392.589z"/>
		<path style="fill:#3F2349;" d="M106.359,393.645c1.102,1.458,3.882,18.592,16.281,13.111c0.441,0.358,0.873,0.722,1.243,1.144
			c0.952,1.086,2.575,4.774,1.379,5.608c-1.816,1.267-3.917,1.771-8.668,0.255c-3.76-1.2-4.806-3.152-5.635-4.924
			c-0.652-1.393-0.975-2.851-1.836-4.153c-0.778-1.177-1.77-2.198-2.551-3.372c-1.184-1.78-1.591-3.648-0.932-5.716
			C105.855,394.922,106.102,394.277,106.359,393.645z"/>
		<polygon style="fill:#F3B18F;" points="190.18,194.065 169.802,224.964 181.603,221.862 195.147,193.188 		"/>
		<path style="fill:#FFFFFF;" d="M190.39,209.075c0,0-5.96,12.31-10.07,14.88c-4.11,2.57-30.8,6.34-30.8,6.34l-0.44-3.56
			l-1.42-11.66l27.26-2.42l7.55-10.68c1.65-0.42,5.6-0.02,7.3,2.59C190.47,205.655,190.79,207.125,190.39,209.075z"/>
		<path style="opacity:0.57;fill:#D6D2CC;" d="M190.39,209.075c0,0-5.96,12.31-10.07,14.88c-4.11,2.57-30.8,6.34-30.8,6.34
			l-0.44-3.56h0.27c0,0,28.51-3.68,30.97-5.46c2.07-1.49,7.72-13.09,9.45-16.71C190.47,205.655,190.79,207.125,190.39,209.075z"/>
		<path style="fill:#222221;" d="M143.063,200.303"/>
		<path style="fill-rule:evenodd;clip-rule:evenodd;fill:#D57066;" d="M138.203,196.118c1.052,0.023,1.898,0.386,1.889,0.81
			c-0.009,0.424-0.871,0.75-1.922,0.727c-1.052-0.023-1.898-0.386-1.889-0.81C136.289,196.42,137.151,196.095,138.203,196.118
			L138.203,196.118z"/>
		<path style="fill-rule:evenodd;clip-rule:evenodd;fill:#D57066;" d="M148.293,197.654h-0.049
			c-1.051-0.021-1.898-0.388-1.891-0.811c0.007-0.423,0.875-0.748,1.926-0.727h0.064
			C148.363,196.567,148.349,197.082,148.293,197.654z"/>
		<path style="fill-rule:evenodd;clip-rule:evenodd;fill:#2B1733;" d="M139.771,194.248c0,0.485-0.273,0.878-0.611,0.878
			c-0.338,0-0.611-0.393-0.611-0.878c0-0.485,0.274-0.879,0.611-0.879C139.498,193.37,139.771,193.763,139.771,194.248z"/>
		<path style="fill-rule:evenodd;clip-rule:evenodd;fill:#2B1733;" d="M146.729,194.248c0,0.485,0.274,0.878,0.611,0.878
			c0.337,0,0.611-0.393,0.611-0.878c0-0.485-0.274-0.879-0.611-0.879C147.003,193.37,146.729,193.763,146.729,194.248z"/>
		<path style="fill:#E89874;" d="M140.343,201.461c0,0,0.483,1.721,2.299,1.814c2.576,0.132,2.817-1.787,2.817-1.787
			L140.343,201.461z"/>
		<path style="fill:#D87F60;" d="M143.998,198.965c0,0-1.316-0.755-1.303-0.381s0.788,1.001,1.351,1.001
			c0.415,0,1.028-0.377,1.171-0.824C145.438,198.072,143.998,198.965,143.998,198.965z"/>
		<path style="fill:#FFFFFF;" d="M134.143,177.607c0.81,1.404-0.255,3.536-2.379,4.762c-2.124,1.227-4.503,1.083-5.314-0.32
			c-0.81-1.404,0.255-3.536,2.379-4.762C130.953,176.059,133.332,176.203,134.143,177.607z"/>
		<path style="fill:#D57066;" d="M143.162,201.118c0,0-0.423-0.331-0.637-0.394c-0.133-0.039-0.679,0.183-1.286,0.306
			c-0.481,0.097-1.062,0.224-1.748,0.125c-0.052-0.007,1.309,0.611,2.108,0.697c1.675,0.179,2.339,0.313,4.783-0.735
			c0.079-0.034-1.163,0.097-1.923-0.136c-0.236-0.072-0.462-0.212-0.651-0.251C143.721,200.713,143.162,201.118,143.162,201.118z"/>
		<polygon style="fill:#3F2349;" points="105.325,397.535 105.325,406.439 110.774,406.439 		"/>
		<polygon style="fill:#3F2349;" points="151.46,396.726 151.46,405.63 156.91,405.63 		"/>
		<path style="fill:#E89874;" d="M148.533,193.314c0,0.43-0.007,0.861-0.042,1.27c-0.007,0.106-0.014,0.219-0.028,0.325
			c-0.071-1.559-0.381-3.112-0.924-4.572c-0.247-0.677-0.529-1.482-0.952-2.075c-0.614-0.861-0.515-0.776-1.362-0.325
			c-1.355,0.706-2.434,1.496-3.944,1.955c-1.835,0.557-3.768,1.002-5.271,2.188c-1.806,1.425-2.709,3.754-2.907,6.047
			c-0.12,1.334-0.057,3.005,0.099,4.437c-1.341-2.173-2.208-5.235-2.328-8.445c0-0.268-0.021-0.529-0.021-0.804
			c0-7.444,3.959-13.484,8.842-13.484C144.574,179.83,148.533,185.87,148.533,193.314z"/>
		<path style="fill:#BC7713;" d="M150.011,184.643c-1.743-4.07-6.199-7.086-10.607-7.514c-7.202-0.699-16.468,4.089-13.466,16.88
			c0.59,2.513,2.547,4.627,5.785,5.797c0.593-0.773,1.314-3.094,1.375-3.795c0.198-2.292,1.103-4.62,2.907-6.048
			c1.502-1.189,3.44-1.632,5.273-2.188c1.511-0.458,2.591-1.248,3.943-1.956c0.851-0.446,0.748-0.534,1.366,0.329
			c0.424,0.593,1.056,2.428,1.307,3.107c0.541,1.464,1.215,5.062,0.639,7.901C151.422,193.8,151.753,188.713,150.011,184.643z"/>
		<path style="fill:#F3B18F;" d="M133.164,195.205c0.555,1.861-0.031,3.679-1.309,4.061c-1.278,0.381-2.765-0.819-3.32-2.68
			c-0.555-1.861,0.031-3.679,1.309-4.061C131.123,192.143,132.609,193.343,133.164,195.205z"/>
		<path style="fill:#D57066;" d="M132.218,195.487c0.344,1.153-0.019,2.279-0.811,2.515c-0.792,0.236-1.713-0.507-2.057-1.66
			c-0.344-1.153,0.019-2.279,0.811-2.516C130.953,193.59,131.874,194.334,132.218,195.487z"/>
		<path style="fill:#FFFFFF;" d="M132.549,198.052c0.065,0.218-0.059,0.447-0.277,0.512c-0.218,0.065-0.448-0.059-0.512-0.277
			c-0.065-0.218,0.059-0.447,0.277-0.512C132.255,197.71,132.484,197.834,132.549,198.052z"/>
		<path style="fill:#83BAC6;" d="M217.766,197.865l-15.199-6.345l-9.791-14.307l-6.912,4.922l10.285,13.954l0.748,17.068
			c0.051,1.164,1.377,1.803,2.319,1.117l18.864-13.724C219.06,199.84,218.883,198.332,217.766,197.865z"/>
		<path style="fill:#F48CE8;" d="M217.766,197.865l-4.485-1.872c-4.314,4.465-11.44,1.189-16.961,3.977l0.578,13.188
			c0.051,1.164,1.377,1.803,2.32,1.118l18.864-13.724C219.06,199.84,218.883,198.332,217.766,197.865z"/>
		<path style="fill:#F3B18F;" d="M195.686,177.869c-0.873-0.949-3.164,0.952-1.635,2.291c0.548,0.479,1.197,0.352,1.569-0.179
			C196.062,179.354,196.249,178.48,195.686,177.869z"/>
		<path style="fill:#F3B18F;" d="M196.942,180.274c-0.007,0.003-0.014,0.005-0.021,0.008c-0.025,0.012-0.604,0.681-0.882,0.998
			c-0.299,0.34-0.623,0.671-0.881,1.044c-0.365,0.527-0.568,1.401,0.065,1.833c0.648,0.443,1.35-0.22,1.781-0.659
			c0.351-0.357,0.68-0.736,0.985-1.133c0.222-0.289,0.505-0.608,0.518-0.991C198.529,180.704,197.424,179.797,196.942,180.274z"/>
		<path style="fill:#F3B18F;" d="M199.565,183.404c-0.576-0.734-2.39,0.348-2.33,0.325c0.002-0.001,0.327,0.437,0.418,0.643
			c-0.646,0.521-1.303,1.289-1.553,2.089c-0.098,0.313-0.125,0.699,0.135,0.943c0.222,0.208,0.559,0.222,0.833,0.118
			c0.418-0.159,0.705-0.57,0.987-0.895c0.191-0.219,0.382-0.438,0.573-0.657c-0.028,0.08-0.046,0.164-0.053,0.255
			c-0.024,0.296,0.061,0.54-0.111,0.816c-0.205,0.327-0.502,0.68-0.553,1.076c-0.04,0.312,0.099,0.656,0.428,0.737
			c0.378,0.093,0.69-0.182,0.915-0.449c0.542-0.643,1.194-1.492,1.115-2.386c-0.031-0.344-0.191-0.691-0.516-0.847
			c-0.151-0.072-0.332-0.099-0.497-0.068C199.72,184.597,199.996,183.953,199.565,183.404z"/>
		<path style="fill:#F3B18F;" d="M191.855,189.807c-0.957-0.986-1.666-1.618-2.392-2.776c-0.357-0.569-0.703-1.155-1.135-1.672
			c-0.199-0.238-0.305-0.535-0.474-0.793c-0.166-0.253-0.383-0.488-0.528-0.758c-0.513-0.956-2.24-2.076-2.812-1.124
			c-0.352,0.586,0.54,1.257,0.814,1.884c0.238,0.544,0.825,1.866,0.825,1.866c0.88,0.871,2.126,1.262,2.668,2.438
			c0.504,1.094,0.744,2.116,0.728,3.313c-0.008,0.611-0.076,1.222-0.202,1.82c-0.082,0.392-0.376,1.95-0.865,2.887
			c-0.124,0.238,1.394-1.286,1.635-1.203c0.323,0.111,0.641,0.239,0.952,0.381c0.667,0.304,1.292,0.682,1.882,1.116
			c0.066,0.048,0.152,0.022,0.174-0.059c0.184-0.699,1.597-2.379,1.534-3.059C194.435,191.666,192.326,190.292,191.855,189.807z"/>
		<g>
			<path style="fill:#8E550A;" d="M145.582,181.214c-0.266,0.704-0.924,1.196-1.561,1.574c-0.663,0.365-1.336,0.629-2.009,0.909
				c-1.343,0.555-2.723,1.076-4.081,1.538c-1.349,0.464-2.656,0.999-3.717,1.859c-1.03,0.873-1.893,2.085-1.949,3.567
				c-0.186-0.717-0.078-1.499,0.171-2.22c0.274-0.715,0.71-1.368,1.251-1.918c1.101-1.111,2.534-1.735,3.911-2.231
				c1.397-0.46,2.75-0.925,4.148-1.331c0.691-0.214,1.409-0.383,2.07-0.62C144.487,182.122,145.119,181.79,145.582,181.214z"/>
		</g>
		<g>
			<path style="fill:#8E550A;" d="M141.884,178.988c-0.975,0.302-1.959,0.556-2.937,0.835c-0.981,0.258-1.972,0.49-2.936,0.785
				c-1.937,0.547-3.755,1.376-5.164,2.763c-1.429,1.343-2.459,3.1-2.933,5.017c-0.473,1.919-0.401,3.986,0.204,5.929
				c-0.896-1.837-1.147-3.997-0.764-6.05c0.364-2.066,1.457-3.988,2.977-5.438c0.764-0.723,1.637-1.334,2.584-1.794
				c0.951-0.452,1.948-0.764,2.949-0.986C137.86,179.606,139.869,179.285,141.884,178.988z"/>
		</g>
		<g>
			<path style="fill:#8E550A;" d="M146.336,182.312c1.367,1.293,2.331,2.993,2.903,4.797c0.276,0.908,0.462,1.853,0.476,2.809
				c0.025,0.953-0.136,1.918-0.512,2.78c0.175-1.866-0.135-3.641-0.679-5.365C147.989,185.601,147.222,183.962,146.336,182.312z"/>
		</g>
		<g>
			<path style="fill:#8E550A;" d="M124.854,180.601c-2.638,1.536-4.006,4.524-4.201,7.416c-0.199,2.937,0.763,5.842,2.114,8.465
				c1.279,2.682,3.139,5.082,4.387,7.88c0.616,1.392,1.061,2.89,1.144,4.421c0.07,1.522-0.205,3.096-1.005,4.383
				c0.647-1.364,0.827-2.889,0.642-4.354c-0.156-1.472-0.639-2.885-1.3-4.209c-1.314-2.654-3.163-5.063-4.536-7.786
				c-1.332-2.706-2.351-5.749-2.021-8.853c0.163-1.533,0.658-3.026,1.44-4.344C122.329,182.325,123.473,181.216,124.854,180.601z"/>
		</g>
		<g>
			<path style="fill:#8E550A;" d="M123.598,204.711c0.141,1.155-0.093,2.357-0.521,3.448c-0.418,1.102-1.006,2.114-1.592,3.101
				c-1.185,1.964-2.464,3.833-2.902,6.12c-0.082-1.161,0.194-2.346,0.642-3.426c0.439-1.09,1.033-2.095,1.618-3.08
				C122.022,208.912,123.271,207.021,123.598,204.711z"/>
		</g>
		<path style="fill:#FFFFFF;" d="M139.776,213.334c0,0,3.825,10.983,4.715,41.402c1.456,49.773,2.833,84.85,2.833,84.85
			c9.399,1.466,18.632,1.324,27.574-1.626c0,0-7.096-30.565-17.988-68.105c-4.484-15.452-9.249-21.93-5.834-30.362
			c2.2-5.431-2.214-10.905-1.996-12.758c0.8-6.803,4.312-12.384,4.312-12.384L139.776,213.334z"/>
		<path style="fill:#FFFFFF;" d="M128.411,214.161l-8.306,0.917l-4.557,14.866l1.007,18.923c-3.65,9.055-7.203,13.706-12.432,50.721
			c-1.56,11.042-7.528,44.518-7.528,44.518s4.175-2.434,12.945-3.544c7.701-0.974,12.492,0.325,12.492,0.325
			s7.917-37.54,11.504-71.032C137.481,233.041,128.411,214.161,128.411,214.161z"/>
		<path style="opacity:0.57;fill:#D6D2CC;" d="M116.009,238.61l0.344,6.467c3.005-3.318,6.499-6.78,8.144-11.167
			C121.319,234.969,118.525,236.608,116.009,238.61z"/>
		<g>
			<path style="fill:#B5780B;" d="M145.005,277.347l-40.779,19.298c-0.417,0.197-0.915,0.019-1.112-0.398l-13.27-28.04
				c-0.197-0.417-0.019-0.914,0.397-1.112l40.779-19.298c0.417-0.197,0.915-0.019,1.112,0.397l13.27,28.04
				C145.6,276.652,145.422,277.15,145.005,277.347z"/>
			
				<rect x="97.073" y="258.563" transform="matrix(0.9039 -0.4278 0.4278 0.9039 -105.0305 76.4546)" style="fill:#EAD9B5;" width="41.106" height="26.799"/>
			
				<rect x="134.503" y="256.21" transform="matrix(0.9039 -0.4278 0.4278 0.9039 -98.6389 84.0721)" style="fill:#2B1733;" width="6.544" height="10.674"/>
		</g>
		<path style="opacity:0.13;fill:#2B1733;" d="M125.798,280.732c-2.96-10.063-11.844-14.739-16.358-22.854l-7.336,3.471
			c2.266,2.122,4.321,4.774,6.302,6.854c0.691-0.807,1.613-1.33,2.536-0.869c0.729,0.291,1.322,0.753,1.841,1.319
			c0.037-0.007,0.077-0.019,0.11-0.019c4.675,3.4,6.295,8.19,7.037,13.46c1.17,1.818,2.417,3.582,3.907,5.136l5.545-2.624
			C127.639,283.535,126.129,282.386,125.798,280.732z"/>
		<polygon style="fill:#F3B18F;" points="118.832,275.149 98.084,254.228 101.606,247.925 122.021,272.066 		"/>
		<path style="fill:#FFFFFF;" d="M124.498,214.593c-5.915-0.035-9.808,3.053-11.383,6.202c0,0-17.624,25.393-17.088,31.76
			c0.536,6.367,11.189,14.383,11.189,14.383c3.473,0,8.21-4.064,8.129-6.828l-7.896-7.777l17.62-24.64
			C128.735,223.055,127.204,214.609,124.498,214.593z"/>
		<path style="opacity:0.57;fill:#D6D2CC;" d="M107.448,252.332c0,0-4.838,0.777-6.838,0c0,0,1.147,1.22,3.777,1.169
			c-1.298,0.395-2.744,0.724-3.706,0.602c0,0,1.655,1.099,4.642,0.013c1.684-0.612,2.102-1.066,2.146-1.345
			C107.648,252.531,107.448,252.332,107.448,252.332z"/>
		<path style="fill:#F3B18F;" d="M129.563,283.57c-1.905-0.647-3.052-2.271-3.869-4.027c-0.572-1.23-1.065-2.5-1.56-3.766
			c0.46,0.539,0.927,1.073,1.435,1.549c0.486,0.456,1.052,0.795,1.706,0.504c0.151-0.067,0.201-0.24,0.108-0.377
			c-0.835-1.237-1.66-2.481-2.505-3.711c-0.697-1.014-1.337-1.47-2.429-1.974c-1.325-0.611-2.222-1.709-3.175-2.776
			c-1.048-1.174-2.084-2.358-3.145-3.52c-0.054-0.155-0.238-0.267-0.401-0.132c-1.136,0.939-2.334,1.78-3.604,2.528
			c-0.117,0.069-0.137,0.277-0.049,0.374c1.206,1.312,2.413,2.623,3.619,3.936c0.572,0.623,1.119,1.192,1.38,2.02
			c0.292,0.928,0.283,1.943,0.48,2.893c0.315,1.523,1.045,2.556,1.851,3.838c0.972,1.544,1.217,3.395,1.924,5.055
			c0.075,0.176,0.265,0.201,0.414,0.111c0.581-0.35,0.535-1.01,0.396-1.601c-0.106-0.45-0.229-0.896-0.356-1.342
			c0.93,1.581,2.051,3.056,4.03,3.199c0.279,0.02,0.435-0.325,0.206-0.506c-1.133-0.898-2.01-2.019-2.596-3.295
			c0.514,0.799,1.062,1.572,1.782,2.196c0.751,0.652,2.15,1.528,3.166,1.026c0.17-0.084,0.259-0.369,0.06-0.485
			c-1.013-0.589-2.016-1.234-2.767-2.15c-0.498-0.606-0.855-1.304-1.162-2.024c1.137,1.608,2.433,3.984,5.043,3.085
			C129.72,284.138,129.756,283.636,129.563,283.57z"/>
		<path style="fill:#818ACC;" d="M129.264,229.135c-1.681,0-1.677,2.611,0.006,2.611
			C130.95,231.747,130.947,229.135,129.264,229.135z"/>
		<path style="fill:#818ACC;" d="M131.796,243.418c-0.047-0.426-0.267-0.673-0.583-0.941c-0.388-0.329-1.067-0.215-1.421,0.1
			c-0.391,0.348-0.491,0.781-0.477,1.278c0.018,0.654,0.526,1.295,1.226,1.278c0.683-0.016,1.259-0.524,1.278-1.226
			C131.824,243.74,131.815,243.583,131.796,243.418z"/>
		<path style="fill:#818ACC;" d="M126.017,291.336c-0.135,0.013-0.27,0.026-0.406,0.039c-0.534,0.051-0.901,0.609-0.882,1.106
			c0.021,0.531,0.428,0.979,0.967,1.032c0.15,0.015,0.3,0.03,0.45,0.045c0.676,0.067,1.234-0.53,1.197-1.184
			C127.302,291.657,126.69,291.272,126.017,291.336z"/>
		<path style="fill:#818ACC;" d="M122.782,310.247c-1.63,0-1.671,2.535-0.036,2.535
			C124.376,312.782,124.416,310.247,122.782,310.247z"/>
		<path style="opacity:0.41;fill:#FFFFFF;" d="M194.808,187.751c-1.182-2.119-2.708-4.061-4.249-5.93
			c-0.948-1.15-2.538,0.317-1.716,1.488c1.331,1.895,2.632,3.844,4.141,5.603C193.763,189.819,195.43,188.866,194.808,187.751z"/>
		<path style="opacity:0.41;fill:#FFFFFF;" d="M199.583,193.803c-0.335-0.465-0.643-0.933-1.095-1.294
			c-0.375-0.3-1.038-0.247-1.382,0.078c-0.393,0.371-0.46,0.864-0.276,1.357c0.197,0.526,0.61,0.987,0.939,1.439
			c0.45,0.619,1.161,1.295,1.966,0.776C200.679,195.549,200.073,194.483,199.583,193.803z"/>
		<path style="opacity:0.41;fill:#FFFFFF;" d="M201.047,201.663c-0.034-1.349-2.143-1.592-2.123-0.214
			c0.032,2.174-0.141,4.323-0.315,6.488c-0.107,1.329,1.819,1.542,2.049,0.238C201.036,206.024,201.102,203.842,201.047,201.663z"/>
		<path style="opacity:0.41;fill:#FFFFFF;" d="M199.393,210.291c-1.518,0-1.646,2.365-0.119,2.365
			C200.793,212.656,200.92,210.291,199.393,210.291z"/>
		<path style="fill:#A6D5DD;" d="M192.871,177.399l-7.044,5.101c-0.619,0.448-1.484,0.31-1.933-0.309l0,0
			c-0.448-0.619-0.31-1.484,0.309-1.933l7.044-5.101c0.619-0.448,1.484-0.31,1.933,0.309l0,0
			C193.628,176.085,193.49,176.951,192.871,177.399z"/>
		<path style="fill:#8E550A;" d="M136.313,192.605c0.243,0.077,1.164-0.807,2.705-0.484c1.457,0.305,2.064,0.376,2.064,0.376
			s0.291-0.402,0.356-0.778c0,0-1.782-0.336-2.899-0.334C137.421,191.389,136.271,192.592,136.313,192.605z"/>
		<path style="fill:#8E550A;" d="M148.497,192.115c-0.367-0.078-0.797-0.099-1.298,0.007c-1.461,0.303-2.067,0.374-2.067,0.374
			s-0.289-0.402-0.353-0.776c0,0,1.778-0.339,2.9-0.332c0.261,0,0.529,0.071,0.783,0.169
			C148.476,191.74,148.49,191.924,148.497,192.115z"/>
	</g>
	<g>
		<polygon style="fill:#AAD4E0;" points="411.285,217.494 342.969,217.494 340.801,213.359 342.969,164.338 406.325,162.177 
			411.285,164.338 		"/>
		<path style="fill:#AA0222;" d="M404.724,213.258h-63.087c-0.884,0-1.601-0.717-1.601-1.601v-47.879
			c0-0.884,0.717-1.601,1.601-1.601h63.087c0.884,0,1.601,0.717,1.601,1.601v47.879
			C406.325,212.541,405.608,213.258,404.724,213.258z"/>
		<rect x="344" y="165.495" style="fill:#FC1A3A;" width="58.362" height="44.444"/>
		<path style="fill:#FFFFFF;" d="M386.721,184.378h-9.637c-0.311,0-0.564-0.252-0.564-0.564v-9.637c0-0.311-0.253-0.564-0.564-0.564
			h-5.551c-0.311,0-0.564,0.253-0.564,0.564v9.637c0,0.311-0.252,0.564-0.564,0.564h-9.637c-0.311,0-0.564,0.253-0.564,0.564v5.551
			c0,0.311,0.253,0.564,0.564,0.564h9.637c0.311,0,0.564,0.253,0.564,0.564v9.637c0,0.311,0.253,0.564,0.564,0.564h5.551
			c0.311,0,0.564-0.252,0.564-0.564v-9.637c0-0.311,0.252-0.564,0.564-0.564h9.637c0.311,0,0.564-0.252,0.564-0.564v-5.551
			C387.285,184.63,387.033,184.378,386.721,184.378z"/>
	</g>
	<g>
		<g>
			<path style="fill:#AAD4E0;" d="M359.805,116.645c0,14.086-11.419,25.504-25.504,25.504c-17.138,0-30.402-13.868-30.402-27.953
				c0-14.086,11.419-25.505,25.504-25.505C343.489,88.691,359.805,102.559,359.805,116.645z"/>
			<circle style="fill:#6E88A0;" cx="329.403" cy="114.196" r="25.504"/>
			
				<ellipse transform="matrix(0.2319 -0.9727 0.9727 0.2319 141.9242 408.1326)" style="fill:#FFFFFF;" cx="329.403" cy="114.196" rx="21.891" ry="21.891"/>
		</g>
		<g>
			<rect x="327.081" y="105.071" style="fill:#6E88A0;" width="2.172" height="14.503"/>
			
				<rect x="333.79" y="111.78" transform="matrix(-1.836970e-16 1 -1 -1.836970e-16 453.3649 -215.3011)" style="fill:#6E88A0;" width="1.086" height="14.504"/>
		</g>
		<path style="fill:#6E88A0;" d="M330.857,96.291c0,1.043-0.845,1.888-1.888,1.888c-1.043,0-1.888-0.845-1.888-1.888
			c0-1.043,0.845-1.888,1.888-1.888C330.012,94.403,330.857,95.249,330.857,96.291z"/>
		<path style="fill:#6E88A0;" d="M330.857,131.771c0,1.043-0.845,1.888-1.888,1.888c-1.043,0-1.888-0.845-1.888-1.888
			c0-1.043,0.845-1.888,1.888-1.888C330.012,129.883,330.857,130.728,330.857,131.771z"/>
		<path style="fill:#6E88A0;" d="M317.369,100.543c0.521,0.521,0.521,1.367,0,1.888c-0.521,0.521-1.366,0.521-1.888,0
			c-0.521-0.521-0.521-1.367,0-1.888S316.848,100.022,317.369,100.543z"/>
		<path style="fill:#6E88A0;" d="M342.457,125.631c0.521,0.521,0.521,1.367,0,1.888c-0.521,0.521-1.367,0.521-1.888,0
			c-0.521-0.521-0.521-1.367,0-1.888C341.09,125.11,341.936,125.11,342.457,125.631z"/>
		<path style="fill:#6E88A0;" d="M342.457,102.431c-0.521,0.521-1.367,0.521-1.888,0c-0.521-0.521-0.521-1.367,0-1.888
			c0.521-0.521,1.367-0.521,1.888,0S342.978,101.91,342.457,102.431z"/>
		<path style="fill:#6E88A0;" d="M317.369,127.519c-0.521,0.521-1.366,0.521-1.888,0c-0.521-0.521-0.521-1.367,0-1.888
			c0.521-0.521,1.366-0.521,1.888,0C317.89,126.152,317.89,126.998,317.369,127.519z"/>
		<path style="fill:#6E88A0;" d="M346.709,115.919c-1.043,0-1.888-0.845-1.888-1.888c0-1.043,0.845-1.888,1.888-1.888
			c1.043,0,1.888,0.845,1.888,1.888C348.597,115.074,347.752,115.919,346.709,115.919z"/>
		<path style="fill:#6E88A0;" d="M311.229,115.919c-1.043,0-1.888-0.845-1.888-1.888c0-1.043,0.845-1.888,1.888-1.888
			s1.888,0.845,1.888,1.888C313.117,115.074,312.272,115.919,311.229,115.919z"/>
	</g>
	<g>
		<path style="fill:#83A3BA;" d="M424.85,388.598c0-11.857,0-39.662,0-50.242c0-12.745-15.769-16.849-15.769-34.346H389.1h-0.001
			h-19.981c0,17.497-15.769,21.602-15.769,34.346c0,10.58,0,38.385,0,50.242v5.49v9.938c0,3.459,11.042,8.571,33.363,9.246
			c25.782,0.78,38.139-5.786,38.139-9.246V388.598L424.85,388.598z"/>
		<path style="fill:#F9C646;" d="M424.85,393.224c0,0-13.478,4.676-39.082,4.921c-18.367,0.176-32.419-4.921-32.419-4.921v-51.412
			c0,0,9.359,2.727,32.419,3.551c27.046,0.966,39.082-3.551,39.082-3.551V393.224z"/>
		<path style="fill:#F9C646;" d="M417.938,304.559v-12.275c0-2.79-2.262-5.052-5.052-5.052h-47.572c-2.79,0-5.052,2.262-5.052,5.052
			v12.275c0,1.287,1.043,2.33,2.33,2.33c0,0,11.568,1.315,26.508,1.315c12.417,0,26.508-1.315,26.508-1.315
			C416.894,306.889,417.938,305.845,417.938,304.559z"/>
		<path style="opacity:0.29;fill:#FFFFFF;" d="M416.328,344.018c-0.537-4.494-2.517-8.12-5.026-11.818
			c-3.562-5.251-6.616-10.021-6.013-16.572c0.14-1.521,2.446-1.048,2.325,0.454c-0.681,8.499,6.844,14.124,9.844,21.336
			c2.536,6.096,2.06,13.305,2.177,19.765c0.287,15.953,0.287,32.216-1.472,48.092c-0.164,1.484-2.677,1.228-2.626-0.265
			c0.566-16.589,1.588-33.057,1.225-49.676C416.68,351.587,416.773,347.747,416.328,344.018z"/>
		<path style="opacity:0.29;fill:#FFFFFF;" d="M385.125,404.349l-16.893-2.33c-6.97-2.242-7.971-6.889-7.971-12.536v-49.344
			c0-5.647,4.577-10.224,10.224-10.224l15.526,1.31c7.666,1.095,9.338,8.615,9.338,14.262v48.639
			C395.349,399.771,390.772,404.349,385.125,404.349z"/>
		<path style="opacity:0.29;fill:#FFFFFF;" d="M375.23,311.259c-1.105,1.98-1.966,4.082-3.023,6.089
			c-1.183,2.247-2.648,4.348-3.798,6.603c-0.757,1.484,1.095,2.67,2.15,1.399c2.929-3.529,5.521-8.589,6.697-13.026
			C377.564,311.166,375.917,310.028,375.23,311.259z"/>
	</g>
	<g>
		<path style="fill:#FFFFFF;" d="M328.97,247.745c-0.05,4.41-5.46,6.9-9.02,4.98c-1.12-0.59-2.06-1.63-2.6-3.17
			c-0.06,0-3.55-7.47-7.32-15.55c-4.43-9.54-9.25-19.93-9.25-19.93c-0.45-0.97-0.67-1.98-0.67-2.98c0-2.88,1.78-5.6,4.7-6.64
			c3.7-1.32,7.79,0.51,9.25,4.14l14.81,36.62c0.05,0.14,0,0.3-0.12,0.36c-0.04,0.03-0.09,0.05-0.14,0.05
			c0.21,0.61,0.32,1.19,0.35,1.75v0.09L328.97,247.745z"/>
		<path style="fill:#F3B18F;" d="M327.733,272.656c-1.161-0.234-4.382-1.268-5.343-0.346c-0.497,0.476-0.349,1.771-0.406,2.342
			c-0.155,1.543-0.132,3.184-0.903,4.551c-0.884,1.569-1.712,2.754-1.497,4.674c0.134,1.195,0.623,2.214,0.774,3.37
			c-0.004,0.475-0.007,0.95-0.012,1.425c-0.001,0.063,0.012,0.12,0.032,0.172c-0.008,0.489,0.033,0.929,0.292,1.462
			c0.02,0.042,0.048,0.075,0.077,0.106c0.002,0.003,0.004,0.006,0.006,0.008c0.004,0.004,0.007,0.008,0.011,0.012
			c0.135,0.173,0.408,0.26,0.573,0.065c0.53-0.63,0.923-1.299,0.982-2.14c0.031-0.438-0.072-0.776-0.118-1.199
			c-0.112-1.038,0.038-1.783,0.391-2.619c0.452,0.87,0.8,1.789,1.341,2.619c0.549,0.841,1.212,1.59,1.87,2.346
			c1.803,2.07,3.01,4.372,4.282,6.78c0.192,0.363,0.821,0.278,0.821-0.169c0-1.855-0.745-3.424-1.473-5.095
			c-0.623-1.429-1.245-2.858-1.867-4.287c2.134,2.571,3.595,5.588,5.031,8.633c0.16,0.339,0.683,0.288,0.793-0.061
			c0.483-1.531-0.488-3.556-1.126-4.93c-0.537-1.157-1.194-2.25-1.902-3.31c0.773,0.833,1.44,1.757,2.058,2.725
			c0.35,0.856,0.775,1.683,1.191,2.505c0.115,0.227,0.32,0.28,0.502,0.23c0.278,0.146,0.69-0.06,0.598-0.432
			c-0.263-1.065-0.622-2.079-1.049-3.06c0.205,0.284,0.787,0.238,0.754-0.192c-0.2-2.661-1.96-4.23-3.468-6.267
			c-0.994-1.343-1.839-2.935-2.51-4.465c-0.695-1.584-0.456-3.343-0.418-5.037C328.027,272.901,327.914,272.692,327.733,272.656z"/>
		<path style="fill:#FFFFFF;" d="M329.38,275.485c-0.16,1.63-5.11,1.56-7.51,0.51v-0.01c-0.83-0.35-1.35-0.82-1.3-1.37l-3.22-25.06
			c0.02-1.46,0.43-2.73,1.08-3.77c2.61-4.13,9.07-4.77,10.32-0.21c0.14,0.53,0.22,1.13,0.21,1.8v0.09l0.01,0.28L329.38,275.485z"/>
		<path style="opacity:0.57;fill:#D6D2CC;" d="M321.87,275.985c-0.83-0.35-1.35-0.82-1.3-1.37l-3.22-25.06
			c-0.06,0-3.55-7.47-7.32-15.55c-0.71-3.98-1.17-6.55-1.17-6.55l9.57,18.33l1.12,2.14l0.4,4.8L321.87,275.985z"/>
		<polygon style="fill:#EDEDED;" points="302.61,337.357 290.951,337.357 286.656,309.305 283.11,337.357 264.045,335.587 
			287.108,274.428 295.97,277.724 		"/>
		<path style="fill:#2F3163;" d="M277.237,174.499c0.232-0.38,0.483-0.863,0.243-1.238c-0.207-0.324-0.657-0.36-1.041-0.362
			c-1.043-0.006-2.155,0.008-3.023,0.585c-1.246,0.828-1.238,3.374-0.81,4.808c0.371,1.244,2.156,3.734,2.495,1.518
			C275.358,178.124,276.212,176.175,277.237,174.499z"/>
		<path style="fill:#2F3163;" d="M276.059,176.736c-0.859,1.27-0.716,8.214-0.716,8.214s-2.115-4.866-2.737-6.658
			C272.606,178.291,276.59,175.951,276.059,176.736z"/>
		<path style="fill:#2F3163;" d="M295.557,176.946c0.356,0.878,0.931,1.648,1.371,2.487c0.44,0.839,0.747,1.814,0.506,2.73
			c-0.227,0.864-0.897,1.529-1.353,2.297c-0.549,0.924-0.785,1.995-1.054,3.035c-0.269,1.041-0.596,2.102-1.283,2.929
			c-0.687,0.827-1.821,1.369-2.853,1.066c-0.675-0.198-1.217-0.729-1.555-1.347c-0.337-0.618-0.491-1.318-0.589-2.015
			c-0.388-2.756,0.051-5.623,1.246-8.137c0.764-1.606,1.834-3.065,3.129-4.283c0.341-0.321,1.459-1.559,1.943-1.29
			C295.481,174.65,295.356,176.451,295.557,176.946z"/>
		<path style="fill:#121433;" d="M303.121,392.578c0.181-1.205,0.028-2.432-0.449-3.554c-0.257-0.605-0.527-1.247-0.802-1.907
			c2.525,0.116,5.086-0.064,7.605-0.444c0.17,1.225,0.317,2.318,0.438,3.233c0.305,2.305,1.034,4.539,2.202,6.55
			c0.518,0.892,1.077,1.761,1.71,2.586c0.957,1.248,2.054,2.402,3.322,3.339c1.081,0.798,3.155,1.155,4.775,1.84
			c1.18,0.498,1.83,2.758,0.896,3.652c-1.825,1.746-5.355,1.669-7.57,1.715c-2.38,0.049-4.376-0.638-5.596-1.871
			c-2.602-2.626-3.288-1.464-5.614-2.653c-1.817-0.928-2.13-2.691-1.725-5.838C302.527,397.567,302.885,394.148,303.121,392.578z"/>
		<path style="fill:#121433;" d="M269.72,392.578c-0.181-1.205-0.028-2.432,0.449-3.554c0.257-0.605,0.527-1.247,0.803-1.907
			c-2.525,0.116-5.086-0.064-7.605-0.444c-0.17,1.225-0.317,2.318-0.438,3.233c-0.305,2.305-1.034,4.539-2.202,6.55
			c-0.518,0.892-1.077,1.761-1.71,2.586c-0.957,1.248-2.054,2.402-3.322,3.339c-1.081,0.798-3.154,1.155-4.775,1.84
			c-1.18,0.498-1.83,2.758-0.896,3.652c1.825,1.746,5.355,1.669,7.57,1.715c2.38,0.049,4.376-0.638,5.597-1.871
			c2.602-2.626,3.288-1.464,5.614-2.653c1.818-0.928,2.13-2.691,1.725-5.838C270.314,397.567,269.956,394.148,269.72,392.578z"/>
		<path style="fill:#818ACC;" d="M310.86,393.765c0,0-7.53,1.93-7.97-0.26c-1.264-6.24-8.03-31.283-8.904-59.467
			c-0.54-17.42-6.827-41.983-6.827-41.983c-0.6,7.44-4.258,25.35-7.118,41.71c0,0,1.01,35.31-9.8,59.14
			c-0.92,2.04-7.82,0.24-7.77-0.7c0.25-4.44-0.16-37.35-0.38-53.92c-0.08-5.71-0.14-9.48-0.14-9.48l6.91-62.53h38.805
			c0,0,2.985,35.25,3.175,46.12c0,0.01,0,0.01,0,0.02c0.16,9.46-0.436,19.527,0.42,29.17
			C313.61,368.071,311.6,389.565,310.86,393.765z"/>
		<path style="fill:#F3B18F;" d="M290.321,182.676c-0.589,1.739-0.099,3.477,1.096,3.882c1.194,0.405,2.64-0.677,3.23-2.417
			c0.589-1.739,0.098-3.477-1.096-3.882C292.356,179.854,290.91,180.936,290.321,182.676z"/>
		<path style="fill:#818ACC;" d="M267.723,206.206l18.874-7.279l19.071,4.831c-2.058,29.458-0.807,65.982-0.807,65.982
			l-35.624-0.181C269.236,269.557,267.227,225.371,267.723,206.206z"/>
		<path style="fill:#D57066;" d="M291.437,183.054c-0.302,0.891-0.051,1.781,0.561,1.989c0.612,0.207,1.353-0.347,1.654-1.238
			c0.302-0.891,0.05-1.781-0.561-1.988C292.479,181.609,291.739,182.163,291.437,183.054z"/>
		<path style="fill:#F3B18F;" d="M283.103,203.888c0.143,1.761,1.481,5.034,3.494,5.034s6.656-5.486,6.493-6.881l-2.071-16.084
			l-9.477,4.526C281.541,190.483,283.018,202.838,283.103,203.888z"/>
		<path style="fill:#D57066;" d="M291.652,190.881l-0.634-4.924l-9.477,4.526c0,0,0.605,4.327,1.171,8.444
			C286.648,197.893,289.684,194.529,291.652,190.881z"/>
		<path style="fill:#F3B18F;" d="M291.099,184.73c0,0.007,0,0.007,0,0.007c-0.045,0.873-0.082,1.603-0.082,1.999
			c-0.813,2.916-2.819,8.636-10.262,8.017c-4.303-0.365-5.608-4.967-5.862-9.128c0-0.037-0.007-0.075-0.007-0.112
			c-0.022-0.351-0.03-0.694-0.037-1.029v-0.127c-0.015-0.641-0.007-1.26,0.022-1.835c0.007-0.186-0.015-0.38-0.022-0.574
			c-0.007-0.209-0.007-0.41-0.007-0.619v-0.075c0-0.336,0.015-0.671,0.037-0.999c0-0.127,0.015-0.261,0.022-0.388
			c0.007-0.06,0.007-0.112,0.015-0.172c0.037-0.477,0.097-0.947,0.172-1.402c0.887-5.571,4.176-9.717,8.099-9.717
			c3.997,0,7.331,4.281,8.151,9.986C291.442,179.204,291.226,182.441,291.099,184.73z"/>
		<path style="fill-rule:evenodd;clip-rule:evenodd;fill:#D87F60;" d="M286.82,181.316c-0.302,0.051-0.61-0.034-0.913-0.083
			c-0.492-0.08-1.005-0.063-1.489,0.048c-0.252,0.058-0.516,0.141-0.765,0.075c-0.334-0.088-0.514-0.439-0.44-0.736
			c0.075-0.297,0.352-0.531,0.668-0.66c0.316-0.129,0.669-0.168,1.015-0.198c0.579-0.05,1.171-0.077,1.739,0.035
			c0.369,0.072,1.199,0.253,1.17,0.672C287.78,180.832,287.198,181.252,286.82,181.316z"/>
		<path style="fill-rule:evenodd;clip-rule:evenodd;fill:#D87F60;" d="M286.82,181.316c-0.302,0.051-0.61-0.034-0.913-0.083
			c-0.492-0.08-1.005-0.063-1.489,0.048c-0.252,0.058-0.516,0.141-0.765,0.075c-0.334-0.088-0.514-0.439-0.44-0.736
			c0.075-0.297,0.352-0.531,0.668-0.66c0.316-0.129,0.669-0.168,1.015-0.198c0.579-0.05,1.171-0.077,1.739,0.035
			c0.369,0.072,1.199,0.253,1.17,0.672C287.78,180.832,287.198,181.252,286.82,181.316z"/>
		<path style="fill-rule:evenodd;clip-rule:evenodd;fill:#D87F60;" d="M278.22,181.359c-0.254,0.06-0.515-0.022-0.768-0.082
			c-0.485-0.104-0.999-0.127-1.491-0.045c-0.298,0.052-0.612,0.134-0.91,0.082c-0.067-0.007-0.134-0.03-0.209-0.06
			c0-0.47,0.022-0.932,0.06-1.387c0.127-0.03,0.246-0.052,0.336-0.075c0.567-0.112,1.156-0.082,1.738-0.03
			c0.343,0.03,0.701,0.067,1.014,0.194c0.313,0.134,0.589,0.365,0.671,0.664C278.734,180.919,278.548,181.27,278.22,181.359z"/>
		<path style="fill:#121433;" d="M281.053,187.935"/>
		<ellipse style="fill-rule:evenodd;clip-rule:evenodd;fill:#121433;" cx="285.096" cy="182.519" rx="0.578" ry="0.831"/>
		<ellipse style="fill-rule:evenodd;clip-rule:evenodd;fill:#121433;" cx="276.759" cy="182.519" rx="0.578" ry="0.831"/>
		<path style="fill:#2F3163;" d="M288.49,180.752c-0.267,0.084-1.281-0.888-2.978-0.533c-1.604,0.336-2.273,0.415-2.273,0.415
			s-0.32-0.659-0.392-1.074c0,0,2.062-0.659,3.293-0.659C288.492,178.9,288.537,180.737,288.49,180.752z"/>
		<path style="fill:#2F3163;" d="M279.156,179.413c-0.075,0.41-0.377,1.223-0.377,1.223s-0.664-0.082-2.267-0.418
			c-0.641-0.134-1.193-0.082-1.633,0.037c0-0.127,0.015-0.261,0.022-0.388c0.007-0.06-0.011-0.477-0.004-0.537
			c0.335-0.164,0.701-0.283,1.066-0.283C277.194,179.04,279.156,179.413,279.156,179.413z"/>
		<path style="fill:#D87F60;" d="M280.483,187.016c0,0,1.584-0.908,1.568-0.459c-0.016,0.45-0.948,1.205-1.626,1.205
			c-0.5,0-1.237-0.454-1.409-0.991C278.749,185.941,280.483,187.016,280.483,187.016z"/>
		<path style="fill:#D87F60;" d="M280.569,189.143c0,0,0.453-0.19,0.619-0.244c0.103-0.033,1.401,0.392,2.691,0.175
			c0.04-0.007-1.956,0.78-3.321,0.78c-1.354,0-3.176-0.663-2.964-0.607c0.507,0.135,2.286-0.242,2.431-0.274
			C280.092,188.958,280.569,189.143,280.569,189.143z"/>
		<path style="opacity:0.57;fill:#D87F60;" d="M291.099,184.73c0,0.007,0,0.007,0,0.007c-0.47,0.969-0.82,1.7-0.82,1.7
			s0.35-4.84,0-7.435c-0.552-1.298-1.469-2.446-2.625-3.259c-2.468,1.857-6.861,2.64-9.143,2.744
			c-1.141,0.052-2.289-0.015-3.423-0.194c0.887-5.571,4.176-9.717,8.099-9.717c3.997,0,7.331,4.281,8.151,9.986
			C291.442,179.204,291.226,182.441,291.099,184.73z"/>
		<path style="fill:#2F3163;" d="M292.889,168.996c-0.965-0.417-2.347-0.901-3.488-1.208c-1.402-1.857-4.107-2.954-6.419-2.913
			c-2.769,0.049-5.507,1.135-7.556,2.997c-2.27,2.062-3.872,5.122-6.802,6.027c3.077,2.16,6.879,3.267,10.635,3.097
			c2.277-0.103,6.672-0.885,9.142-2.741c1.153,0.814,2.069,1.957,2.623,3.255c0.354,2.595-0.002,7.439-0.002,7.439
			s1.575-3.346,2.638-5.167c0.168-0.255,0.332-0.514,0.49-0.776c0.002-0.003,0.005-0.007,0.007-0.01l-0.001-0.001
			c0.841-1.409,1.488-2.928,1.607-4.552C295.922,172.259,294.9,169.865,292.889,168.996z"/>
		<polygon style="fill:#83BAC6;" points="211.857,232.055 217.686,211.292 227.127,214.363 221.164,234.99 		"/>
		<path style="fill:#F48CE8;" d="M211.857,232.055l9.308,2.935l2.756-9.534c-3.374,0.889-7.269,0.297-10.543,1.183L211.857,232.055z
			"/>
		<polygon style="opacity:0.32;fill:#FFFFFF;" points="222.439,212.838 216.057,233.379 221.164,234.99 227.127,214.363 		"/>
		<g>
			
				<line style="fill:none;stroke:#121433;stroke-width:0.5;stroke-linecap:round;stroke-linejoin:round;stroke-miterlimit:10;" x1="226.339" y1="219.99" x2="221.318" y2="218.546"/>
			
				<line style="fill:none;stroke:#121433;stroke-width:0.5;stroke-linecap:round;stroke-linejoin:round;stroke-miterlimit:10;" x1="225.359" y1="222.72" x2="220.337" y2="221.276"/>
			
				<line style="fill:none;stroke:#121433;stroke-width:0.5;stroke-linecap:round;stroke-linejoin:round;stroke-miterlimit:10;" x1="224.378" y1="225.45" x2="219.356" y2="224.006"/>
			
				<line style="fill:none;stroke:#121433;stroke-width:0.5;stroke-linecap:round;stroke-linejoin:round;stroke-miterlimit:10;" x1="223.397" y1="228.18" x2="218.376" y2="226.736"/>
			
				<line style="fill:none;stroke:#121433;stroke-width:0.5;stroke-linecap:round;stroke-linejoin:round;stroke-miterlimit:10;" x1="222.417" y1="230.91" x2="217.395" y2="229.466"/>
		</g>
		<path style="fill:#F3B18F;" d="M215.593,215.435c0.613,0.445,1.38,0.34,1.803-0.399c1.182-2.063-2.074-3.294-2.679-1.912
			C214.328,214.013,214.866,214.907,215.593,215.435z"/>
		<path style="fill:#F3B18F;" d="M212.931,218.071c0.16,0.419,0.594,0.664,0.95,0.899c0.488,0.323,0.996,0.616,1.52,0.878
			c0.644,0.322,1.673,0.788,2.221,0.052c0.535-0.719-0.021-1.607-0.625-2.052c-0.428-0.314-0.912-0.558-1.372-0.82
			c-0.428-0.244-1.323-0.764-1.355-0.768c-0.009-0.001-0.018,0-0.027,0C213.528,215.916,212.651,217.339,212.931,218.071z"/>
		<g>
			<g>
				
					<rect x="222.418" y="207.544" transform="matrix(0.9527 0.304 -0.304 0.9527 74.4074 -57.9525)" style="fill:#83BAC6;" width="1.812" height="4.894"/>
				
					<rect x="219.097" y="205.31" transform="matrix(0.9527 0.304 -0.304 0.9527 73.3966 -58.4508)" style="fill:#83BAC6;" width="10.674" height="2.406"/>
			</g>
			
				<rect x="217.255" y="211.682" transform="matrix(0.9527 0.304 -0.304 0.9527 75.0637 -57.6181)" style="fill:#121433;" width="10.674" height="1.203"/>
		</g>
		<path style="fill:#F3B18F;" d="M213.41,222.518c-0.194,0.029-0.384,0.127-0.524,0.264c-0.3,0.295-0.345,0.74-0.248,1.132
			c0.252,1.019,1.295,1.71,2.14,2.215c0.35,0.21,0.799,0.395,1.182,0.148c0.333-0.214,0.357-0.647,0.193-0.977
			c-0.207-0.418-0.67-0.696-1.021-0.98c-0.296-0.239-0.295-0.541-0.433-0.86c-0.042-0.098-0.095-0.183-0.156-0.261
			c0.294,0.169,0.589,0.339,0.884,0.509c0.436,0.252,0.909,0.598,1.432,0.615c0.342,0.011,0.71-0.132,0.876-0.447
			c0.195-0.369,0.018-0.786-0.209-1.095c-0.58-0.79-1.599-1.389-2.512-1.72c0.022-0.262,0.215-0.87,0.218-0.87
			c0.075,0.002-2.342-0.505-2.7,0.526C212.265,221.49,212.814,222.097,213.41,222.518z"/>
		<path style="fill:#F3B18F;" d="M222.013,230.645c0.189,0.776,2.39,2.097,2.86,2.799c0.054,0.081,0.16,0.078,0.215-0.001
			c0.487-0.704,1.035-1.36,1.657-1.95c0.29-0.275,0.592-0.537,0.908-0.783c0.235-0.183,2.494,0.925,2.266,0.709
			c-0.897-0.851-1.814-2.462-2.054-2.864c-0.367-0.614-0.674-1.263-0.915-1.936c-0.472-1.317-0.596-2.538-0.455-3.94
			c0.152-1.507,1.381-2.412,2.023-3.71c0,0,0.147-1.684,0.203-2.377c0.065-0.797,0.797-1.879,0.184-2.393
			c-0.995-0.836-2.479,1.06-2.682,2.312c-0.058,0.354-0.208,0.696-0.296,1.039c-0.089,0.35-0.093,0.719-0.223,1.058
			c-0.281,0.736-0.441,1.516-0.619,2.281c-0.363,1.557-0.906,2.525-1.59,3.98C223.157,225.583,221.348,227.905,222.013,230.645z"/>
		<polygon style="fill:#83BAC6;" points="212.014,247.816 210.772,248.376 214.117,237.892 215.082,238.2 		"/>
		
			<rect x="210.85" y="233.087" transform="matrix(0.9527 0.304 -0.304 0.9527 81.4501 -54.6296)" style="fill:#83BAC6;" width="10.674" height="2.406"/>
		<path style="fill:#FFFFFF;" d="M276.55,221.725c0,0-2.43,3.45-6,8.15c-7.64,10.08-20.49,25.91-25.81,25.91
			c-7.21,0-22.15-21.34-22.15-21.34c0.24-0.42,0.48-0.83,0.73-1.23c1.81-2.9,3.8-5.06,6-6.33l13.94,13.12l22.46-32.8L276.55,221.725
			z"/>
		<path style="opacity:0.57;fill:#D6D2CC;" d="M270.55,229.875c-7.64,10.08-20.49,25.91-25.81,25.91
			c-7.21,0-22.15-21.34-22.15-21.34c0.24-0.42,0.48-0.83,0.73-1.23c0,0,15.54,19.42,20.21,20.96c4.66,1.55,26.66-26.72,26.66-26.72
			L270.55,229.875z"/>
		
			<rect x="212.78" y="235.236" transform="matrix(0.9527 0.304 -0.304 0.9527 82.2222 -54.1125)" style="fill:#121433;" width="4.266" height="3.589"/>
		<path style="opacity:0.57;fill:#D87F60;" d="M276.803,184.991c0,0.373-0.641,0.671-1.432,0.671c-0.164,0-0.328-0.015-0.477-0.037
			c0-0.037-0.007-0.075-0.007-0.112c-0.022-0.351-0.03-0.694-0.037-1.029v-0.127c0.164-0.03,0.343-0.045,0.522-0.045
			C276.161,184.312,276.803,184.618,276.803,184.991z"/>
		<path style="fill:#6F7CC1;" d="M276.37,266.275c1.9-31.95,3.094-64.597,3.094-64.597s-6.858,1.726-8.744,4.527
			c-2.374,41.102,0.519,84.271-8.744,124.299c0.025,1.634,0.066,4.353,0.114,7.781l15.27,2.07
			C274.08,323.925,274.72,293.835,276.37,266.275z"/>
		<path style="opacity:0.57;fill:#D87F60;" d="M288.374,184.988c0,0.373-0.643,0.676-1.436,0.676c-0.793,0-1.436-0.303-1.436-0.676
			c0-0.373,0.643-0.676,1.436-0.676C287.731,184.312,288.374,184.615,288.374,184.988z"/>
		<path style="fill:#6F7CC1;" d="M310.84,312.415c0.16,9.46,0.31,19.49,0.42,29.17H296.3c0,0-3.55-37.66-4.07-75.31
			c-0.33-23.39-0.021-49.645,3.549-64.005l9.889,1.488c0,0,0.684,26.378,1.692,56.79c0.235,7.102,2.93,42.698,3.48,51.848
			C310.84,312.405,310.84,312.405,310.84,312.415z"/>
		<path style="fill:#6F7CC1;" d="M303.055,267.854c-0.08-1.001-0.129-3.466-0.129-3.466c-12.203,0.769-23.667,0.867-34.069,0
			l-0.594,3.343C282.193,268.8,289.124,268.598,303.055,267.854z"/>
		<path style="fill:#FFFFFF;" d="M264.045,209.651c4.839-8.342,14.454-7.829,14.454-7.829s-7.78,91.741-4.143,135.535
			c-5.838,0.735-11.377,0.246-16.43-2.233c-0.73-17.545,9.752-85.477,7.064-101.215
			C264.991,233.909,261.424,214.169,264.045,209.651z"/>
		<path style="fill:#FFFFFF;" d="M296.75,201.494c0,0,9.142,1.551,13.305,3.217c4.387,1.756,2.462,1.83,3.693,9.988
			c0.898,5.949-3.859,11.992-3.693,16.242c0.303,7.757-1.929,16.687-1.695,26.114c0.733,29.46,6.185,63,9.792,82.531
			c-6.372,1.011-12.66,1.039-18.857,0C299.296,339.586,287.442,238.989,296.75,201.494z"/>
		<path style="opacity:0.45;fill:#FFFFFF;" d="M220.442,213.649c-0.541,1.824-1.256,3.594-1.642,5.461
			c-0.123,0.598,0.723,0.692,0.963,0.236c0.88-1.665,1.279-3.493,1.698-5.314C221.614,213.37,220.646,212.962,220.442,213.649z"/>
		<path style="opacity:0.45;fill:#FFFFFF;" d="M219.343,220.908c-0.049-0.359-0.471-0.59-0.799-0.548
			c-0.39,0.05-0.607,0.336-0.658,0.711c-0.052,0.382,0.026,0.829,0.394,1.031c0.252,0.139,0.523,0.137,0.752-0.047
			c0.193-0.155,0.348-0.521,0.349-0.765C219.382,221.162,219.36,221.034,219.343,220.908z"/>
		<path style="opacity:0.45;fill:#FFFFFF;" d="M215.97,228.485c-0.17,0.778-0.552,1.454-0.759,2.212
			c-0.128,0.469,0.486,0.939,0.809,0.459c0.492-0.732,0.668-1.708,0.844-2.56C216.98,228.027,216.092,227.925,215.97,228.485z"/>
		<path style="fill:#818ACC;" d="M299.404,228.169c-1.781,0-1.877,2.772-0.088,2.772
			C301.097,230.941,301.193,228.169,299.404,228.169z"/>
		<path style="fill:#818ACC;" d="M298.935,248.264c-1.657,0-1.817,2.582-0.149,2.582
			C300.442,250.846,300.603,248.264,298.935,248.264z"/>
		<path style="fill:#818ACC;" d="M299.436,271.518c-1.652,0-1.815,2.574-0.152,2.574
			C300.936,274.092,301.099,271.518,299.436,271.518z"/>
		<path style="fill:#818ACC;" d="M299.92,294.966c-1.719,0-1.849,2.677-0.12,2.677C301.519,297.643,301.649,294.966,299.92,294.966z
			"/>
		<path style="fill:#D87F60;" d="M278.579,190.158c0,0,0.319,0.594,0.523,0.719c0.203,0.125,2.663,0.084,2.95-0.01
			c0.287-0.094,1.052-0.709,1.052-0.709s-0.712,1.167-0.977,1.271c-0.265,0.104-2.927,0.167-3.138-0.077
			C278.72,191.04,278.579,190.158,278.579,190.158z"/>
	</g>
	<g>
		<path style="fill:#FFFFFF;" d="M244.162,123.957c-0.527-0.641-1.369-1.018-2.066-1.455c-0.456-0.286-0.918-0.56-1.377-0.84
			c1.012-0.439,2.024-0.882,3.035-1.34c0.196-0.089,0.094-0.41-0.12-0.361c-1.162,0.266-2.314,0.605-3.456,0.993
			c0.409-0.576,0.776-1.175,1.137-1.785c0.321-0.543,0.692-1.057,0.786-1.69c0.027-0.185-0.204-0.267-0.333-0.168
			c-0.525,0.402-0.807,1.034-1.134,1.596c-0.376,0.646-0.736,1.29-1.05,1.968c-0.021,0.046-0.021,0.087-0.017,0.126
			c-0.171-0.013-0.306,0.128-0.322,0.284c-2.055,0.753-4.074,1.666-6.042,2.675c-0.734-2.72-2.043-5.269-3.973-7.371
			c-5.546-6.041-16.337-7.53-22.554-1.694c-1.187-3.078-3.066-6.005-4.943-8.783c0.488-1.063,1.105-2.352,1.179-3.53
			c0.01-0.152-0.187-0.229-0.279-0.103c-0.625,0.857-0.971,2.055-1.255,3.112c-0.504-0.742-1.006-1.475-1.49-2.196
			c-0.116-0.172-0.42,0.022-0.307,0.2c0.378,0.594,0.736,1.202,1.086,1.816c-0.331-0.118-0.687-0.198-0.977-0.297
			c-0.496-0.169-1.15-0.536-1.657-0.297c-0.062,0.03-0.095,0.109-0.064,0.173c0.252,0.514,1.009,0.634,1.512,0.813
			c0.498,0.178,1.125,0.531,1.678,0.495c1.916,3.496,3.546,7.188,5.75,10.462c0.11,0.163,0.399,0.018,0.346-0.167
			c-0.09-0.311-0.209-0.617-0.315-0.925c0.06-0.005,0.121-0.021,0.182-0.065c5.801-4.23,13.894-4.337,19.601,0.219
			c2.788,2.225,4.567,5.318,5.419,8.683c-2.181,1.163-4.296,2.425-6.327,3.686c-0.262,0.163-0.053,0.595,0.219,0.434
			c2.059-1.22,4.166-2.286,6.299-3.281c0.693,3.385,0.478,6.992-0.604,10.247c-1.172,3.524-3.368,6.5-6.142,8.83
			c-0.932-1.152-1.862-2.303-2.755-3.47c-0.153-0.2-0.447,0.054-0.296,0.254c0.887,1.173,1.748,2.379,2.611,3.587
			c-2.949,2.351-6.505,3.989-10.187,4.787c-2.641,0.572-5.707,0.858-8.506,0.31c1.371-3.451,2.601-6.944,3.898-10.421
			c0.097-0.261-0.31-0.404-0.407-0.144c-1.283,3.441-2.719,6.836-4.102,10.239c-0.024,0.058-0.049,0.117-0.073,0.175
			c-1.242-0.311-2.419-0.798-3.464-1.522c-3.564-2.467-5.098-7.168-5.429-11.306c-0.094-1.172-0.083-2.334,0.024-3.476
			c1.764,0.468,3.535,0.853,5.304,1.048c0.231,0.026,0.282-0.3,0.082-0.385c-1.668-0.708-3.438-1.249-5.245-1.711
			c1.099-7.488,6.336-13.976,13.606-16.642c0.215-0.079,0.06-0.397-0.154-0.321c-7.501,2.68-12.9,9.032-14.162,16.785
			c-1.514-0.368-3.044-0.687-4.567-1.003c0.089-0.072,0.184-0.136,0.271-0.21c0.062-0.053,0.021-0.183-0.07-0.158
			c-0.242,0.069-0.479,0.16-0.713,0.261c-0.227-0.047-0.455-0.095-0.681-0.142c-0.145-0.411-0.338-0.813-0.507-1.202
			c-0.307-0.707-0.641-1.4-0.979-2.092c-0.099-0.203-0.378-0.057-0.309,0.147c0.315,0.928,0.593,2.034,1.033,2.987
			c-0.93-0.198-1.853-0.401-2.754-0.622c-0.167-0.041-0.269,0.208-0.098,0.256c1.043,0.291,2.096,0.616,3.154,0.949
			c0.049,0.082,0.106,0.155,0.158,0.234c-0.932,0.573-1.788,1.325-2.545,2.032c-0.202,0.189,0.071,0.508,0.283,0.326
			c0.979-0.843,2.085-1.514,3.122-2.27c1.672,0.531,3.356,1.071,5.05,1.543c-0.056,0.492-0.1,0.987-0.122,1.488
			c-0.182,4.161,0.777,8.669,3.388,12.004c1.59,2.031,3.673,3.223,5.973,3.846c-0.937,2.208-1.973,4.416-2.847,6.659
			c-0.035-0.029-0.082-0.046-0.139-0.043c-1.469,0.077-3.382-0.049-4.727,0.617c-0.208,0.103-0.118,0.371,0.08,0.408
			c1.464,0.28,3.232-0.335,4.661-0.656c-0.275,0.721-0.536,1.446-0.766,2.176c-0.085,0.271,0.314,0.492,0.463,0.227
			c0.441-0.783,0.841-1.596,1.222-2.423c0.351,0.408,0.713,0.808,1.06,1.216c0.452,0.531,0.86,1.102,1.419,1.527
			c0.133,0.101,0.375-0.036,0.318-0.209c-0.235-0.711-0.71-1.282-1.189-1.845c-0.404-0.474-0.849-0.925-1.329-1.329
			c0.894-2.024,1.674-4.122,2.473-6.156c1.634,0.356,3.358,0.45,5.083,0.365c5.235-0.259,10.477-2.148,14.609-5.397
			c0.891,1.242,1.8,2.47,2.74,3.668c-0.152,0.172-0.09,0.511,0.173,0.514c-0.01,0.622-0.01,1.246-0.072,1.866
			c-0.055,0.549-0.216,1.113-0.135,1.661c0.031,0.208,0.302,0.228,0.415,0.083c0.57-0.736,0.628-1.959,0.531-2.977
			c0.499,0.604,1.009,1.199,1.539,1.773c0.129,0.14,0.408-0.012,0.296-0.192c-0.485-0.782-1.006-1.543-1.54-2.296
			c1.178-0.106,2.443-0.273,3.451-0.732c0.166-0.076,0.108-0.317-0.062-0.338c-1.213-0.15-2.618,0.134-3.861,0.414
			c-0.956-1.307-1.96-2.585-2.979-3.85c2.143-1.783,3.968-3.937,5.289-6.443c2.224-4.218,2.866-9.33,1.83-14.02
			c2.178-0.99,4.381-1.923,6.587-2.874c0.57,0.379,1.142,0.757,1.72,1.125c0.686,0.438,1.387,1.04,2.185,1.236
			C244.131,124.384,244.317,124.146,244.162,123.957z"/>
		<path style="fill:#FFFFFF;" d="M210.133,126.821c-2.191-0.693-3.589-2.893-2.095-5.003c0.189-0.267-0.216-0.521-0.416-0.278
			c-1.741,2.119-0.565,5.838,2.483,5.596C210.269,127.124,210.282,126.868,210.133,126.821z"/>
		<path style="fill:#FFFFFF;" d="M220.311,129.491c-0.507-0.68-1.216-1.093-2.053-1.209c-0.31-0.043-0.411,0.478-0.102,0.547
			c0.66,0.148,1.259,0.516,1.654,1.072c0.37,0.52,0.344,1.136,0.63,1.667c0.066,0.122,0.256,0.157,0.336,0.026
			C221.172,130.95,220.711,130.028,220.311,129.491z"/>
		<path style="fill:#FFFFFF;" d="M227.646,133.679c-0.109-0.734,0.437-1.4,1.125-1.587c0.333-0.091,0.227-0.605-0.116-0.528
			c-0.978,0.22-1.721,1.101-1.612,2.131c0.09,0.854,0.838,1.741,1.757,1.63c0.127-0.015,0.175-0.209,0.062-0.277
			C228.307,134.714,227.75,134.382,227.646,133.679z"/>
		<path style="fill:#FFFFFF;" d="M219.53,116.97c-0.244,0.181,0.065,0.515,0.307,0.35c0.816-0.558,1.912-0.678,2.788-0.172
			c0.786,0.455,1.135,1.257,1.359,2.094c0.044,0.166,0.293,0.171,0.312-0.014C224.55,116.646,221.35,115.615,219.53,116.97z"/>
		<path style="fill:#FFFFFF;" d="M203.053,141.159c-0.617-0.001-1.324-0.178-1.636-0.771c-0.321-0.608-0.009-1.42,0.556-1.755
			c0.321-0.19,0.069-0.68-0.27-0.516c-0.912,0.443-1.41,1.529-0.991,2.488c0.386,0.883,1.536,1.445,2.408,0.91
			C203.262,141.429,203.259,141.159,203.053,141.159z"/>
		<path style="fill:#FFFFFF;" d="M201.253,129.186c-0.349,0.104-0.239,0.614,0.124,0.555c1.856-0.302,3.066,0.759,4.052,2.183
			c0.111,0.161,0.315,0.007,0.305-0.145C205.6,129.755,202.988,128.669,201.253,129.186z"/>
		<path style="fill:#FFFFFF;" d="M216.605,140.321c-0.583-0.393-1.346-0.499-1.841-1.026c-0.426-0.453-0.578-1.378,0.054-1.73
			c0.287-0.16,0.07-0.577-0.229-0.452c-0.801,0.334-1.015,1.306-0.697,2.06c0.395,0.936,1.616,1.525,2.595,1.476
			C216.652,140.643,216.77,140.432,216.605,140.321z"/>
		<path style="fill:#FFFFFF;" d="M152.287,133.354c-0.132,0.197,0.094,0.472,0.311,0.352c2.833-1.569,6.849,3.148,3.401,4.913
			c-2.801,1.434-6.552-2.379-4.814-4.719c0.18,0.301,0.353,0.608,0.541,0.902c0.107,0.168,0.437,0.109,0.367-0.122
			c-0.129-0.426-0.277-0.849-0.423-1.273c0.122-0.098,0.238-0.199,0.388-0.288c0.339-0.201,0.056-0.745-0.289-0.544
			c-0.111,0.065-0.211,0.134-0.311,0.203c-1.555-4.294-3.875-8.467-5.871-12.564c0.996-1.071,1.586-2.518,1.076-3.904
			c-0.888-2.415-4.065-2.476-6.107-1.859c-0.195,0.059-0.215,0.38,0.022,0.386c1.471,0.039,3.124-0.265,4.412,0.631
			c1.487,1.035,1.119,2.691,0.19,3.907c-0.036-0.076-0.075-0.154-0.112-0.23c-0.157-0.332-0.652-0.07-0.504,0.262
			c0.066,0.148,0.129,0.301,0.195,0.45c-0.305,0.307-0.639,0.567-0.976,0.752c-1.5,0.821-3.331,0.626-4.515-0.665
			c-0.051-0.056-0.099-0.118-0.146-0.18c0.088-0.092,0.18-0.18,0.267-0.273c0.111-0.119,0-0.373-0.172-0.269
			c-0.11,0.066-0.215,0.14-0.324,0.209c-0.851-1.424-0.921-3.763,1.149-4.039c0.379-0.05,0.24-0.613-0.13-0.574
			c-2.132,0.223-2.749,2.712-2.002,4.442c0.092,0.212,0.208,0.404,0.326,0.593c-2.632,1.766-5.027,4.014-7.434,6.038
			c-2.344,1.971-4.698,3.96-6.95,6.045c-0.382-0.367-0.789-0.701-1.212-0.985c-3.785-2.547-7.009-1.581-9.112,2.422
			c-0.15,0.286,0.22,0.544,0.422,0.281c0.759-0.992,1.456-2.093,2.513-2.793c1.644-1.089,3.328-0.655,4.955,0.225
			c0.65,0.352,1.305,0.816,1.894,1.36c-0.375,0.353-0.755,0.701-1.123,1.061c-0.221,0.216,0.074,0.55,0.317,0.359
			c0.415-0.327,0.823-0.663,1.234-0.996c1.37,1.454,2.196,3.374,1.291,5.335c-1.132,2.452-4.947,4.367-7.534,3.458
			c-3.175-1.116-3.834-4.929-1.792-7.358c0.181-0.216-0.183-0.462-0.362-0.247c-2.048,2.452-1.759,6.09,1.081,7.807
			c2.866,1.733,7.282-0.037,8.997-2.738c1.465-2.308,0.556-4.868-1.109-6.718c2.265-1.859,4.476-3.79,6.711-5.681
			c2.487-2.105,5.229-4.101,7.557-6.409c1.158,1.403,3.077,1.986,4.871,1.343c0.574-0.206,1.149-0.554,1.66-0.993
			c1.8,4.197,3.46,8.685,5.725,12.648c-2.737,2.967,2.253,8.341,5.98,5.884C161.222,136.296,154.475,130.081,152.287,133.354z"/>
		<path style="fill:#FFFFFF;" d="M126.791,160.108c-0.915-0.935-2.616-1.103-3.572-0.217c-0.868-1.124-1.945-2.132-2.892-3.16
			c-1.302-1.415-2.589-2.856-3.973-4.191c0.252-0.231,0.493-0.474,0.749-0.7c0.017-0.015,0.025-0.033,0.037-0.049
			c0.107,0.052,0.262,0.002,0.28-0.146c0.355-2.913,0.297-6.129,0.172-9.063c-0.015-0.357-0.502-0.383-0.554-0.028
			c-0.402,2.779-0.525,6.015-0.045,8.816c-0.085-0.031-0.184-0.027-0.273,0.049c-1.686,1.444-3.334,2.914-4.87,4.518
			c-1.111,1.16-2.401,2.406-3.304,3.796c-1.424-0.961-3.582-0.773-4.414,0.868c-0.025,0.049-0.025,0.095-0.009,0.135
			c-0.072-0.015-0.15,0-0.221,0.067c-1.342,1.276-1.316,3.523-0.045,4.86c1.355,1.426,3.682,1.12,5.043-0.125
			c1.494-1.366,1.574-3.82,0.21-5.315c1.249-1.217,2.317-2.726,3.495-3.98c1.077-1.147,2.199-2.253,3.349-3.329
			c1.212,1.498,2.54,2.907,3.838,4.331c0.974,1.068,1.911,2.262,2.998,3.241c-0.034,0.162,0.109,0.311,0.266,0.225
			c0.163,0.138,0.319,0.288,0.49,0.414c0.179,0.131,0.453-0.094,0.334-0.292c-0.093-0.154-0.21-0.295-0.313-0.445
			c0.846-0.445,1.947-0.46,2.659,0.27c0.995,1.021,0.53,2.838-0.584,3.563c-1.11,0.723-2.767,0.557-3.733-0.344
			c-0.848-0.792-1.315-2.44-0.17-3.195c0.34-0.224,0.013-0.706-0.322-0.462c-1.307,0.95-1.026,2.901-0.06,4.005
			c1.189,1.36,3.564,1.57,4.974,0.444C127.651,163.613,128.031,161.376,126.791,160.108z M108.646,160.893
			c1.029,1.272,0.832,3.128-0.369,4.206c-1.063,0.955-2.891,1.232-3.978,0.159c-1.103-1.088-1.16-2.975-0.03-4.048
			c0.115-0.11,0.101-0.251,0.03-0.352c0.057,0.009,0.115,0.006,0.161-0.032c1.066-0.875,2.574-1.202,3.681-0.404
			c-0.042,0.08-0.091,0.159-0.131,0.24c-0.102,0.21,0.195,0.364,0.35,0.238c0.053-0.043,0.102-0.091,0.154-0.135
			C108.558,160.81,108.606,160.842,108.646,160.893z"/>
		<path style="fill:#FFFFFF;" d="M146.28,161.689c0.031-0.062,0.059-0.126,0.091-0.187c0.535-1.025,1.114-2.023,1.729-3.003
			c0.185-0.295-0.259-0.588-0.452-0.298c-0.602,0.911-1.303,1.915-1.906,2.963c-0.808-0.754-1.669-1.453-2.44-2.105
			c-0.191-0.162-0.478,0.158-0.293,0.33c0.827,0.769,1.619,1.571,2.401,2.386c-0.459,0.874-0.831,1.772-0.998,2.669
			c-0.038,0.205,0.254,0.274,0.361,0.128c0.49-0.664,0.831-1.446,1.182-2.21c0.598,0.667,1.176,1.367,1.883,1.91
			c0.143,0.11,0.352-0.068,0.268-0.227C147.658,163.199,147.005,162.419,146.28,161.689z"/>
		<path style="fill:#FFFFFF;" d="M152.864,159.49c-0.009-0.135-0.224-0.15-0.263-0.025c-0.32,1.021-0.481,2.083-0.619,3.145
			c-0.534-1.017-1.071-2.033-1.632-3.036c-0.218-0.39-0.801-0.068-0.607,0.331c0.682,1.407,1.407,2.792,2.126,4.18
			c0.194,0.374,0.698,0.173,0.736-0.188C152.758,162.433,152.961,160.963,152.864,159.49z"/>
		<path style="fill:#FFFFFF;" d="M161.852,160.503c-0.651,0.079-1.282,0.199-1.908,0.32c-0.003-0.634-0.035-1.269-0.047-1.882
			c-0.009-0.447-0.689-0.472-0.698-0.02c-0.013,0.665-0.054,1.36-0.053,2.051c-0.91,0.165-1.826,0.293-2.799,0.259
			c-0.424-0.015-0.443,0.625-0.023,0.657c0.91,0.069,1.899,0.084,2.86-0.042c0.031,0.411,0.081,0.817,0.182,1.208
			c0.041,0.16,0.306,0.22,0.355,0.029c0.114-0.441,0.163-0.9,0.192-1.364c0.758-0.166,1.48-0.438,2.105-0.871
			C162.197,160.725,162.029,160.481,161.852,160.503z"/>
		<path style="fill:#FFFFFF;" d="M170.509,163.53c-0.357-0.757-1.098-1.364-1.768-1.936c0.514-1.219,0.862-2.569,1.278-3.749
			c0.121-0.343-0.401-0.51-0.533-0.176c-0.421,1.066-0.981,2.204-1.387,3.355c-0.828-0.767-1.67-1.52-2.509-2.275
			c-0.284-0.255-0.726,0.134-0.444,0.407c0.862,0.835,1.719,1.675,2.595,2.495c0.04,0.038,0.081,0.079,0.122,0.118
			c-0.118,0.419-0.211,0.839-0.258,1.255c-0.019,0.173,0.22,0.256,0.317,0.115c0.179-0.259,0.336-0.539,0.484-0.827
			c0.57,0.58,1.182,1.181,1.885,1.456C170.434,163.825,170.573,163.666,170.509,163.53z"/>
		<path style="fill:#FFFFFF;" d="M174.404,160.688c-0.102-0.999-0.23-1.992-0.37-2.986c-0.05-0.356-0.652-0.301-0.635,0.062
			c0.054,1.124,0.125,2.243,0.229,3.364c0.08,0.866,0.069,1.773,0.423,2.576c0.081,0.184,0.404,0.175,0.453-0.031
			C174.732,162.708,174.504,161.665,174.404,160.688z"/>
		<path style="fill:#FFFFFF;" d="M178.332,157.773c0.026-0.473-0.696-0.484-0.732-0.017c-0.148,1.898-0.323,4.137,0.454,5.927
			c0.071,0.164,0.313,0.106,0.331-0.061C178.594,161.701,178.224,159.715,178.332,157.773z"/>
		<path style="fill:#FFFFFF;" d="M171.831,170.367c-4.719-0.798-9.683-0.725-14.46-0.807c-4.819-0.082-9.639-0.033-14.453,0.218
			c-0.389,0.02-0.427,0.62-0.025,0.615c4.824-0.057,9.647-0.101,14.47-0.019c4.796,0.082,9.647,0.595,14.438,0.416
			C172.072,170.781,172.103,170.413,171.831,170.367z"/>
		<path style="fill:#FFFFFF;" d="M155.622,177.989c0.38-1.205,0.723-2.418,1.121-3.536c0.075-0.209-0.261-0.329-0.321-0.119
			c-0.319,1.11-0.762,2.187-1.22,3.258c-0.616-0.589-1.251-1.156-1.91-1.699c-0.282-0.233-0.689,0.252-0.412,0.496
			c0.695,0.612,1.363,1.255,2.019,1.91c-0.552,1.284-1.093,2.568-1.434,3.898c-0.045,0.174,0.188,0.334,0.3,0.158
			c0.682-1.073,1.176-2.313,1.603-3.588c0.532,0.597,1.067,1.398,1.768,1.703c0.163,0.071,0.351-0.104,0.309-0.271
			C157.227,179.351,156.23,178.594,155.622,177.989z"/>
		<path style="fill:#FFFFFF;" d="M162.704,179.047c0.145-1.366,0.259-2.736,0.435-4.06c0.039-0.294-0.413-0.319-0.458-0.03
			c-0.175,1.132-0.405,2.282-0.623,3.438c-0.349-0.285-0.727-0.543-1.063-0.806c-0.825-0.647-1.661-1.277-2.499-1.906
			c-0.288-0.216-0.563,0.236-0.301,0.458c0.718,0.606,1.434,1.214,2.164,1.805c0.491,0.398,0.996,0.893,1.549,1.259
			c-0.273,1.517-0.497,3.04-0.518,4.541c-0.004,0.273,0.412,0.384,0.493,0.096c0.383-1.369,0.597-2.807,0.762-4.255
			c0.007,0.002,0.013,0.007,0.02,0.01c0.154,0.051,0.346-0.12,0.25-0.279C162.856,179.22,162.776,179.137,162.704,179.047z"/>
		<path style="fill:#FFFFFF;" d="M172.899,181.286c-0.635-1.014-1.953-1.587-2.906-2.285c-0.149-0.109-0.292-0.226-0.44-0.337
			c0.452-1.066,0.866-2.147,1.241-3.243c0.15-0.439-0.539-0.645-0.688-0.208c-0.346,1.014-0.724,2.016-1.136,3.005
			c-0.947-0.727-1.879-1.474-2.786-2.25c-0.341-0.292-0.854,0.168-0.516,0.49c0.944,0.9,1.93,1.742,2.951,2.549
			c-0.413,0.858-0.894,1.716-1.102,2.63c-0.044,0.192,0.196,0.441,0.368,0.248c0.605-0.683,0.968-1.556,1.327-2.401
			c1.009,0.774,2.205,1.932,3.49,2.097C172.844,181.6,172.981,181.417,172.899,181.286z"/>
		<path style="fill:#FFFFFF;" d="M176.556,175.877c-0.011-0.464-0.714-0.487-0.725-0.017c-0.041,1.698-0.413,3.734,0.169,5.36
			c0.065,0.182,0.339,0.138,0.397-0.023C176.973,179.587,176.597,177.554,176.556,175.877z"/>
		<path style="fill:#FFFFFF;" d="M192.252,159.915c-1.547,2.651-3.079,5.309-4.714,7.907c-1.627,2.585-3.522,5.024-5.043,7.67
			c-0.1,0.174,0.122,0.425,0.282,0.255c4.118-4.386,7.313-10.223,9.881-15.628C192.77,159.886,192.382,159.692,192.252,159.915z"/>
		<path style="fill:#FFFFFF;" d="M199.902,169.894c-1.565-0.714-3.511-0.827-5.196-1.143c-0.434-0.081-0.64,0.581-0.203,0.661
			c1.719,0.316,3.617,0.919,5.371,0.811C200.058,170.211,200.038,169.956,199.902,169.894z"/>
		<path style="fill:#FFFFFF;" d="M199.618,172.489c-1.415-0.47-3.361-0.065-4.786,0.225c-0.337,0.068-0.224,0.585,0.114,0.522
			c0.865-0.163,1.732-0.276,2.612-0.311c0.678-0.027,1.366,0.055,2.032-0.081C199.763,172.809,199.795,172.548,199.618,172.489z"/>
		<path style="fill:#FFFFFF;" d="M241.624,171.73c-5.689-0.866-11.792-0.444-17.538-0.457c-5.835-0.014-11.678,0.008-17.506,0.31
			c-0.3,0.016-0.345,0.471-0.03,0.478c5.845,0.127,11.694,0.078,17.54,0.115c5.783,0.037,11.818,0.638,17.57,0.041
			C241.955,172.186,241.878,171.768,241.624,171.73z"/>
		<path style="fill:#FFFFFF;" d="M213.26,164.872c0.448-1.268,0.779-2.62,1.187-3.798c0.111-0.322-0.38-0.484-0.5-0.168
			c-0.399,1.05-0.932,2.166-1.377,3.297c-0.666-0.593-1.378-1.105-2.007-1.5c-0.352-0.221-0.663,0.292-0.342,0.537
			c0.724,0.551,1.409,1.15,2.042,1.804c-0.228,0.671-0.409,1.343-0.486,2.006c-0.025,0.214,0.278,0.312,0.393,0.137
			c0.287-0.435,0.531-0.914,0.745-1.419c0.559,0.705,1.044,1.479,1.711,2.076c0.119,0.107,0.305-0.038,0.277-0.179
			C214.704,166.667,214.059,165.712,213.26,164.872z"/>
		<path style="fill:#FFFFFF;" d="M218.028,165.723c-0.003-0.995-0.023-1.99-0.039-2.984c-0.007-0.42-0.65-0.448-0.657-0.023
			c-0.016,0.997-0.035,1.994-0.038,2.991c-0.003,0.863-0.124,1.789,0.136,2.617c0.065,0.207,0.379,0.271,0.454,0.029
			C218.143,167.522,218.03,166.589,218.028,165.723z"/>
		<path style="fill:#FFFFFF;" d="M223.655,163.219c-0.65,0.976-1.082,2.095-1.497,3.2c-0.613-1.192-1.229-2.382-1.85-3.571
			c-0.212-0.407-0.829-0.066-0.624,0.343c0.727,1.453,1.454,2.906,2.193,4.353c0.161,0.316,0.591,0.21,0.702-0.079
			c0.519-1.346,1.124-2.711,1.341-4.147C223.943,163.174,223.734,163.1,223.655,163.219z"/>
		<path style="fill:#FFFFFF;" d="M230.286,164.887c-1.085-0.507-2.559-0.224-3.682,0.028c-0.456,0.102-0.281,0.804,0.176,0.704
			c0.631-0.138,1.264-0.225,1.91-0.241c0.523-0.012,1.053,0.031,1.566-0.077C230.479,165.255,230.471,164.973,230.286,164.887z"/>
		<path style="fill:#FFFFFF;" d="M241.105,159.71c-1.398,0.779-2.799,1.618-4.173,2.513c-0.458-0.484-1.15-0.728-1.779-0.659
			c-0.091-0.17-0.338-0.24-0.494-0.031c-0.053,0.07-0.1,0.152-0.151,0.227c-0.246,0.144-0.456,0.363-0.602,0.665
			c-0.044,0.091,0.009,0.187,0.089,0.242c-0.284,0.626-0.476,1.322-0.517,2.008c-1.628,1.267-3.162,2.637-4.522,4.136
			c-0.13,0.143,0.099,0.329,0.24,0.221c1.461-1.12,2.901-2.241,4.348-3.35c0.058,0.289,0.147,0.568,0.285,0.829
			c0.731,1.39,2.342,1.186,3.201,0.043c0.75-0.998,0.911-2.55,0.331-3.695c1.299-0.921,2.618-1.82,3.999-2.655
			C241.662,160.019,241.42,159.534,241.105,159.71z M234.9,162.398c0.487-0.096,0.901,0.059,1.222,0.355
			c-0.582,0.393-1.155,0.801-1.72,1.218C234.504,163.432,234.678,162.902,234.9,162.398z M236.376,166.036
			c-0.388,0.522-0.963,0.967-1.623,0.405c-0.357-0.304-0.424-0.901-0.444-1.347c0.75-0.57,1.513-1.125,2.276-1.678
			C236.944,164.212,236.93,165.29,236.376,166.036z"/>
		<path style="fill:#FFFFFF;" d="M217.449,175.793c-0.025-0.205-0.337-0.26-0.44-0.086c-0.359,0.609-0.422,1.344-0.56,2.03
			c-0.107,0.532-0.214,1.065-0.321,1.597c-0.699-0.92-1.344-1.914-1.835-2.947c-0.088-0.185-0.357-0.054-0.285,0.134
			c0.528,1.382,1.132,2.624,2.001,3.83c0.16,0.223,0.591,0.268,0.662-0.07c0.176-0.832,0.346-1.666,0.519-2.499
			C217.328,177.121,217.533,176.469,217.449,175.793z"/>
		<path style="fill:#FFFFFF;" d="M220.713,179.074c-0.072-1.017-0.139-2.085-0.518-3.036c-0.111-0.277-0.514-0.141-0.536,0.117
			c-0.087,1.037,0.11,2.108,0.154,3.149c0.038,0.914-0.077,1.881,0.207,2.757c0.084,0.257,0.43,0.295,0.534,0.027
			C220.917,181.147,220.783,180.065,220.713,179.074z"/>
		<path style="fill:#FFFFFF;" d="M223.013,178.974c-0.012-0.836-0.028-1.675-0.091-2.509c-0.028-0.373-0.566-0.419-0.595-0.027
			c-0.063,0.839-0.079,1.682-0.091,2.523c-0.01,0.735-0.113,1.517,0.134,2.217c0.08,0.228,0.409,0.292,0.501,0.028
			C223.118,180.5,223.024,179.715,223.013,178.974z"/>
		<path style="fill:#FFFFFF;" d="M229.179,178.025c0.561-0.537,1.208-1.082,1.504-1.798c0.062-0.15-0.108-0.281-0.244-0.222
			c-0.691,0.299-1.229,0.938-1.746,1.507c-0.648-0.695-1.339-1.346-2.09-1.93c-0.296-0.23-0.694,0.251-0.42,0.507
			c0.686,0.641,1.347,1.302,1.973,2c-0.584,0.611-1.163,1.225-1.735,1.848c-0.234,0.255,0.106,0.654,0.366,0.407
			c0.608-0.577,1.207-1.163,1.803-1.751c0.553,0.727,1.075,1.692,1.825,2.111c0.175,0.098,0.366-0.029,0.343-0.228
			C230.658,179.601,229.787,178.7,229.179,178.025z"/>
		<path style="fill:#FFFFFF;" d="M115.109,118.286c-0.136-0.112-0.342,0.041-0.308,0.201c0.263,1.244,0.904,2.333,1.186,3.588
			c-0.323-0.035-0.645-0.07-0.968-0.106c-2.991-3.173-7.005-5.672-10.431-8.338c-0.263-0.205-0.537,0.222-0.284,0.428
			c3.114,2.533,6.228,5.619,9.662,7.796c-1.347-0.147-2.694-0.295-4.041-0.442c-0.43-0.047-0.448,0.621-0.022,0.67
			c2.171,0.253,4.342,0.507,6.514,0.76c0.254,0.03,0.386-0.237,0.358-0.446C116.59,121.04,116.217,119.202,115.109,118.286z"/>
		<path style="fill:#FFFFFF;" d="M100.393,109.872c0.413-1.137,0.751-2.316,1.124-3.376c0.118-0.336-0.387-0.495-0.52-0.173
			c-0.387,0.942-0.862,1.939-1.281,2.954c-0.006-0.005-0.012-0.011-0.018-0.016c-0.893-0.786-1.874-1.448-2.919-2.014
			c-0.29-0.157-0.573,0.248-0.287,0.434c0.997,0.649,1.94,1.372,2.813,2.182c0.044,0.041,0.085,0.092,0.128,0.135
			c-0.317,0.843-0.575,1.692-0.688,2.529c-0.023,0.173,0.222,0.255,0.317,0.115c0.398-0.586,0.723-1.249,1.01-1.943
			c0.424,0.498,0.854,1.005,1.373,1.305c0.164,0.095,0.432-0.032,0.368-0.248C101.605,111.049,100.997,110.417,100.393,109.872z"/>
		<path style="fill:#FFFFFF;" d="M108.702,111.198c-0.492-0.972-1.513-1.768-2.377-2.465c0.259-0.892,0.447-1.799,0.624-2.572
			c0.08-0.351-0.443-0.535-0.54-0.178c-0.207,0.764-0.451,1.513-0.713,2.258c-0.84-0.667-1.702-1.297-2.639-1.826
			c-0.312-0.176-0.57,0.236-0.301,0.458c0.885,0.727,1.779,1.442,2.646,2.19c-0.324,0.836-0.798,1.674-0.922,2.56
			c-0.023,0.162,0.209,0.291,0.327,0.166c0.538-0.569,0.924-1.337,1.227-2.164c0.711,0.677,1.407,1.493,2.247,1.957
			C108.532,111.72,108.841,111.472,108.702,111.198z"/>
		<path style="fill:#FFFFFF;" d="M114.335,104.336c0.019-0.415-0.611-0.436-0.643-0.024c-0.108,1.418-0.179,2.951-0.08,4.46
			c-0.443-0.297-0.949-0.535-1.375-0.781c-0.955-0.549-1.939-1.048-2.931-1.526c-0.399-0.192-0.773,0.387-0.369,0.593
			c0.983,0.502,1.948,1.034,2.902,1.589c0.595,0.346,1.205,0.85,1.864,1.102c0.12,0.989,0.326,1.954,0.669,2.851
			c0.077,0.202,0.427,0.133,0.421-0.084C114.721,109.767,114.207,107.108,114.335,104.336z"/>
		<path style="fill:#FFFFFF;" d="M175.922,138.314c-4.199-0.4-8.785-0.558-13.017,0.153c0.234-0.381,0.834-0.675,1.198-0.913
			c0.573-0.377,1.149-0.75,1.726-1.121c0.295-0.189,0.057-0.675-0.255-0.492c-0.948,0.556-1.918,1.079-2.851,1.66
			c-0.364,0.227-0.899,0.471-0.939,0.971c-0.003,0.035,0.005,0.068,0.007,0.102c-0.072,0.015-0.147,0.025-0.219,0.04
			c-0.163,0.036-0.167,0.298,0.013,0.305c0.104,0.004,0.208,0.002,0.312,0.005c0.202,0.368,0.625,0.681,0.866,0.916
			c0.694,0.676,1.36,1.477,2.191,1.983c0.223,0.136,0.574-0.118,0.407-0.369c-0.289-0.436-0.644-0.767-1.021-1.13
			c-0.343-0.33-1.25-0.943-1.471-1.385c4.328,0.095,8.696-0.148,13.028-0.076C176.319,138.971,176.336,138.354,175.922,138.314z"/>
		<path style="fill:#FFFFFF;" d="M209.009,100.504c-1.994,0.404-2.314,2.173-2.124,3.987c0.091,0.868,0.602,3.099,1.937,2.381
			c0.14-0.075,0.153-0.316-0.02-0.365c-1.1-0.314-1.195-1.52-1.273-2.475c-0.095-1.163,0.067-2.945,1.527-3.258
			C209.228,100.737,209.183,100.468,209.009,100.504z"/>
		<path style="fill:#FFFFFF;" d="M212.268,100.151c-0.137-0.041-0.308,0.135-0.18,0.254c0.664,0.615,1.461,1.091,1.941,1.884
			c0.577,0.952,0.677,2.447-0.382,3.134c-2.562,1.662-2.992-3.402-1.665-4.618c0.14-0.128-0.036-0.341-0.188-0.227
			c-1.779,1.345-1.666,6.223,1.339,5.694c1.307-0.23,1.985-1.483,1.901-2.735C214.932,102.014,213.713,100.587,212.268,100.151z"/>
		<path style="fill:#FFFFFF;" d="M220.773,99.909c-0.346,1.509-0.876,3.233-0.958,4.875c-0.284-0.534-0.686-1.027-1.021-1.512
			c-0.538-0.78-1.065-1.59-1.711-2.286c-0.099-0.107-0.277-0.003-0.219,0.137c0.361,0.861,0.868,1.663,1.348,2.463
			c0.436,0.726,0.823,1.577,1.477,2.125c0.043,0.036,0.092,0.049,0.141,0.047c0.017,0.22,0.037,0.439,0.078,0.653
			c0.039,0.207,0.37,0.246,0.428,0.029c0.553-2.064,0.315-4.387,0.709-6.506C221.078,99.759,220.811,99.741,220.773,99.909z"/>
		<path style="fill:#FFFFFF;" d="M231.981,103.633c-0.786-0.151-1.546-0.034-2.334-0.034c-0.179,0-0.207,0.279-0.027,0.279
			c0.797,0,1.572,0.119,2.367-0.035C232.109,103.82,232.097,103.655,231.981,103.633z"/>
		<path style="fill:#FFFFFF;" d="M237.352,103.303c-0.018-1.236,0.006-2.475-0.2-3.697c-0.044-0.263-0.401-0.205-0.44,0.029
			c-0.217,1.3-0.183,2.629-0.2,3.944c-0.015,1.138-0.129,2.321,0.164,3.428c0.062,0.235,0.437,0.294,0.507,0.028
			C237.503,105.833,237.37,104.538,237.352,103.303z"/>
		<path style="fill:#FFFFFF;" d="M244.262,100.791c-0.009-0.18-0.008-0.36-0.021-0.54c-0.02-0.27-0.459-0.43-0.527-0.1
			c-0.003,0.016-0.006,0.034-0.009,0.05c-0.336-0.255-0.735-0.438-1.175-0.51c-0.129-0.021-0.192,0.163-0.089,0.235
			c0.392,0.272,0.817,0.641,1.121,1.07c-0.119,0.752-0.201,1.579-0.218,2.408c-0.4,0.318-0.94,0.425-1.472,0.117
			c-0.816-0.473-1.079-1.459-0.764-2.311c0.31-0.838,1.013-1.348,1.726-1.822c0.114-0.076,0.017-0.259-0.108-0.235
			c-1.232,0.243-2.32,1.324-2.433,2.602c-0.106,1.209,0.786,2.492,2.027,2.653c0.371,0.048,0.72-0.026,1.034-0.171
			c0.043,1.03,0.206,2.024,0.579,2.836c0.083,0.18,0.416,0.183,0.459-0.032c0.211-1.04,0.005-2.125-0.039-3.181
			c-0.008-0.179-0.008-0.358-0.012-0.537c0.165-0.282,0.28-0.595,0.317-0.923C244.729,101.794,244.567,101.243,244.262,100.791z"/>
		<path style="fill:#FFFFFF;" d="M222.925,104.136c-0.057-0.85-0.113-1.712-0.147-2.562c-0.012-0.305-0.426-0.342-0.475-0.035
			c-0.196,1.214-0.522,3.171,0.18,4.285c0.097,0.154,0.361,0.184,0.424-0.023C223.076,105.248,222.963,104.703,222.925,104.136z"/>
		<path style="fill:#FFFFFF;" d="M224.545,100.387c-0.312-0.058-0.405,0.442-0.119,0.546c-0.039,0.792-0.122,1.578-0.125,2.373
			c-0.003,0.671-0.152,1.416,0.199,2.009c0.075,0.127,0.281,0.18,0.37,0.029c0.359-0.607,0.219-1.327,0.216-2.015
			c-0.003-0.727-0.071-1.446-0.113-2.168c0.775,0.359,1.444,0.948,1.794,1.741c0.215,0.487,0.381,1.253,0.14,1.767
			c-0.394,0.838-1.013,0.819-1.79,0.777c-0.297-0.016-0.441,0.339-0.261,0.555c0.498,0.598,1.379,0.499,1.989,0.09
			c0.727-0.488,1.018-1.368,0.97-2.214C227.712,102.069,226.255,100.704,224.545,100.387z"/>
		<path style="fill:#FFFFFF;" d="M222.709,98.723c-0.426,0-0.46,0.663-0.031,0.663C223.104,99.387,223.137,98.723,222.709,98.723z"
			/>
	</g>
</g>
</svg>
