<svg width="2997" height="3740" viewBox="0 0 2997 3740" fill="none" xmlns="http://www.w3.org/2000/svg">
<path d="M2530.26 0C2542.71 44.4015 2546.7 89.251 2550.93 134.624C2579.78 440.099 2784.28 414.661 2979.11 525.855C2980.21 539.128 2980.21 539.128 2979.11 551.137C2867.55 606.143 2743.36 665.606 2630.66 697.77C2565.07 817.337 2562.9 952.837 2530.26 1082.05C2459.63 1087.98 2223.15 904.383 2223.15 839.346C2065.88 833.875 1913.26 880.082 1756.58 874.74C1773.03 768.833 1875.82 702.51 1910.13 606.756C1525.74 621.217 843.607 909.214 1622.27 1010.72C1845.74 1039.97 2060.2 1084.12 2278.15 1139.25C3264.99 1413.09 2313.85 1860.58 1915.67 2038.32C1020.18 2436.24 2657.62 3051.77 2978.74 3168.72C2987.69 3172.01 2987.69 3172.01 2996.82 3175.36C2988.83 3183.99 2980.68 3192.48 2972.6 3201.03C1428.7 4539.15 -1586.09 3162.99 1030.15 1501.72C1039.65 1501.72 1041.79 1502.03 1046.39 1493.82C1133.57 1348.29 889.388 1297.56 782.105 1266.29C601.02 1213.21 32.3373 957.884 435.5 722.419C553.37 651.348 684.45 608.868 817.54 576.419C1180.53 486.479 1556.34 482.35 1927.85 500.574C1890.09 410.725 1764.9 289.064 1768.39 202.252C1780.2 192.14 1780.2 192.139 1793.12 190.908C1891.79 191.931 2003.53 202.99 2098.76 230.378C2165.6 248.185 2340.5 162.586 2391.5 111C2435 67 2475.73 0 2530.26 0Z" fill="#2BAAE2"/>
</svg>
