<svg width="3772" height="4225" viewBox="0 0 3772 4225" fill="none" xmlns="http://www.w3.org/2000/svg">
<path d="M2977.31 437.608C2989.95 481.47 2994 525.774 2998.29 570.596C3027.58 872.357 3235.22 847.229 3433.04 957.071C3434.16 970.183 3434.16 970.183 3433.04 982.046C3319.77 1036.38 3193.67 1095.12 3079.25 1126.9C3012.65 1245.01 3010.45 1378.86 2977.31 1506.5C2905.59 1512.36 2665.48 1331 2665.48 1266.75C2505.8 1261.35 2350.84 1306.99 2191.75 1301.71C2208.46 1197.1 2312.82 1131.58 2347.66 1036.99C1957.37 1051.27 1264.77 1335.77 2055.38 1436.04C2282.28 1464.94 2500.03 1508.55 2721.33 1563.01C3723.31 1833.52 2757.57 2275.57 2353.29 2451.15C1444.06 2844.23 3106.62 3452.28 3432.67 3567.81C3441.75 3571.06 3441.75 3571.06 3451.02 3574.37C3442.91 3582.89 3434.64 3591.28 3426.43 3599.72C1858.84 4921.58 -1202.2 3562.15 1454.18 1921.07C1463.82 1921.07 1466 1921.38 1470.67 1913.27C1559.19 1769.51 1311.26 1719.39 1202.33 1688.5C1018.46 1636.07 441.056 1383.85 850.404 1151.25C970.082 1081.04 1103.17 1039.07 1238.31 1007.02C1606.87 918.174 1988.44 914.095 2365.65 932.097C2327.31 843.341 2200.2 723.158 2203.75 637.402C2215.74 627.413 2215.74 627.412 2228.86 626.196C2329.04 627.206 2442.49 638.131 2539.18 665.186C2607.05 682.776 2784.63 598.218 2836.42 547.259C2880.58 503.794 2921.94 437.608 2977.31 437.608Z" fill="#56B8E2"/>
<path d="M2645.6 439.755C2777.2 336.395 2843 284.717 2918.5 309.778C2994.01 334.844 3029.21 420.05 3099.62 590.466L3117.83 634.554C3137.84 682.981 3147.84 707.193 3167.35 727.456C3186.86 747.718 3213.66 761.729 3267.27 789.76L3316.07 815.274C3504.71 913.91 3599.03 963.228 3609.69 1027.65C3620.35 1092.08 3540.3 1128.95 3380.18 1202.7L3338.76 1221.77C3293.26 1242.73 3270.52 1253.21 3257.33 1271.13C3244.14 1289.06 3242 1312.41 3237.74 1359.1L3233.86 1401.61C3218.84 1565.93 3211.34 1648.09 3142.43 1662.85C3073.52 1677.61 2988.84 1615.18 2819.47 1490.34L2775.66 1458.04C2727.52 1422.57 2703.46 1404.83 2675.81 1395.64C2648.15 1386.46 2620.03 1386.88 2563.79 1387.71L2512.58 1388.47C2314.67 1391.39 2215.71 1392.85 2162.45 1337.54C2109.2 1282.22 2136.92 1206.78 2192.36 1055.89L2206.71 1016.85C2222.46 973.967 2230.34 952.524 2226.43 928.924C2222.52 905.324 2207.28 882.231 2176.78 836.052L2149.02 794.004C2041.71 631.493 1988.06 550.237 2024.06 501.298C2060.06 452.36 2161.87 468.15 2365.5 499.731L2418.18 507.901C2476.04 516.875 2504.98 521.363 2530.22 515.957C2555.46 510.551 2574.16 495.865 2611.56 466.497L2645.6 439.755Z" fill="#56B8E2"/>
</svg>
